<?xml version="1.0" encoding="UTF-8"?><svg id="Layer_1" xmlns="http://www.w3.org/2000/svg" viewBox="0 0 657 247"><defs><style>.cls-1{fill:#fff;}.cls-2{fill:none;}</style></defs><path class="cls-2" d="M546.5,115.62c2.24-.43,4.95-2.84,8.12-7.24,1.83-2.92,3.31-6.65,4.42-11.15,1.1-4.5,1.56-8.59,1.34-12.28-.07-.77-.17-1.47-.29-2.09-.45-2.34-1.41-3.66-2.87-3.96l-1.63,.31c-2.42,.96-5.01,3.46-7.76,7.49-2.75,4.03-4.76,9.15-6.04,15.33-.52,3.53-.57,6.41-.15,8.61,.4,2.07,1.21,3.56,2.45,4.47,.73,.51,1.54,.67,2.42,.5Z"/><path class="cls-2" d="M305.06,139.51c4.62-1.91,8.21-4.66,10.8-8.23,2.58-3.57,3.93-7.01,4.04-10.31,.11-3.3-1.85-4.64-5.88-4.02-5.82,.9-10.85,3.37-15.09,7.42-4.25,4.05-7.11,8.38-8.6,12.98,5.2,3.36,10.12,4.08,14.74,2.16Z"/><g><path class="cls-2" d="M546.5,115.62c2.24-.43,4.95-2.84,8.12-7.24,1.83-2.92,3.31-6.65,4.42-11.15,1.1-4.5,1.56-8.59,1.34-12.28-.07-.77-.17-1.47-.29-2.09-.45-2.34-1.41-3.66-2.87-3.96l-1.63,.31c-2.42,.96-5.01,3.46-7.76,7.49-2.75,4.03-4.76,9.15-6.04,15.33-.52,3.53-.57,6.41-.15,8.61,.4,2.07,1.21,3.56,2.45,4.47,.73,.51,1.54,.67,2.42,.5Z"/><path class="cls-2" d="M305.06,139.51c4.62-1.91,8.21-4.66,10.8-8.23,2.58-3.57,3.93-7.01,4.04-10.31,.11-3.3-1.85-4.64-5.88-4.02-5.82,.9-10.85,3.37-15.09,7.42-4.25,4.05-7.11,8.38-8.6,12.98,5.2,3.36,10.12,4.08,14.74,2.16Z"/><path class="cls-1" d="M617.9,37.64l-.1-.52c-6.01-28.05-25.9-38.85-59.67-32.37-5.03,.96-10.37,2.32-16.03,4.04-4.9,1.3-9.52,2.37-13.87,3.2-27.32,5.23-43.2,1.23-47.64-12.03-6.1,3.11-9.49,7.46-10.18,13.06-.68,5.61-.74,9.9-.18,12.87,.9,4.69,2.99,9.16,6.27,13.39,5.41,6.92,14.75,10.21,28,9.88,2.89-.33,5.81-.79,8.73-1.34,10.6-2.03,20.97-5.27,31.11-9.72,9.47-3.89,18.08-6.58,25.82-8.06l.82-.16c7.9-1.44,14.18,.5,18.87,5.83,2.72,3.92,4.62,8.67,5.69,14.26,1.24,6.49,1.36,14.09,.34,22.8-1.9,16.18-6.44,31.63-13.62,46.35-7.18,14.73-15.5,22.99-24.95,24.8l-2.04,.39c-2.43,.18-4.64-.48-6.63-2.01-1.98-1.51-3.43-3.37-4.33-5.56,10.13-2.3,18.37-8.9,24.73-19.82,6.36-10.92,9.09-22.63,8.17-35.11-.13-1.05-.3-2.1-.49-3.13-1.72-8.97-5.47-15.3-11.25-18.99-6.48-4.06-12.82-5.49-19-4.31-16.58,3.18-27.81,14.04-33.7,32.59-1.07,3.38-1.95,6.69-2.73,9.96-.16,.24-.4,.39-.53,.67-1.21,2.16-2.97,5.38-5.27,9.68-2.31,4.3-5,8.6-8.1,12.91-3.09,4.31-6.39,8.21-9.88,11.7-3.49,3.49-6.8,5.48-9.94,5.96-3.81,.59-5.36-1.47-4.67-6.18,.69-4.7,2.63-10.2,5.82-16.49,3.18-6.29,7.06-12.42,11.62-18.37,4.56-5.96,8.92-10.02,13.07-12.19,.66-.32,1.02-1.52,1.11-3.62,.08-2.09-.58-4.29-1.98-6.59-1.4-2.3-3.74-4.18-7.01-5.65-3.27-1.47-7.92-1.73-13.97-.8-6.49,1-13.39,5.02-20.71,12.06-7.32,7.04-14.19,14.78-20.62,23.21,2.25-3.41,4.61-6.95,7.07-10.61,2.46-3.66,5.25-7.49,8.37-11.47,.4-.72,.35-1.53-.17-2.44-.52-.9-1.64-1.72-3.39-2.43-1.74-.72-4.21-1.21-7.4-1.49-3.19-.27-7.24-.03-12.16,.73-3.58,.55-7.43,2.24-11.52,5.06-4.1,2.82-8.22,6.31-12.34,10.44-4.12,4.14-8.22,8.71-12.28,13.72-4.06,5.01-7.75,9.84-11.04,14.51,2.97-6.15,6.09-11.72,9.36-16.71,3.27-4.99,6.4-8.81,9.39-11.46,1.49-1.32,1.97-2.6,1.43-3.83-.54-1.23-1.68-2.26-3.44-3.08-1.75-.82-4-1.4-6.74-1.75-2.74-.34-5.56-.29-8.47,.16-3.81,.59-7.76,3.06-11.87,7.41-4.11,4.36-8.14,9.79-12.1,16.31-3.96,6.52-7.7,13.72-11.23,21.6-.74,1.64-1.36,3.24-2.05,4.87-3.15,4.61-6.75,9.28-10.89,14.03-4.4,5.06-9.23,9.69-14.48,13.89-5.25,4.21-10.56,6.72-15.93,7.55-6.94,1.07-11.87,.11-14.79-2.9-2.92-3.01-4.44-6.95-4.55-11.85,1.24,1.56,3.07,2.76,5.51,3.58,2.43,.83,5.88,.9,10.36,.21,7.83-1.21,14.67-3.79,20.5-7.76,5.83-3.96,10.44-8.51,13.82-13.62s5.5-10.37,6.38-15.76c.87-5.39,.48-10.25-1.18-14.59-1.66-4.34-4.6-7.72-8.84-10.13-4.24-2.41-9.94-3.06-17.1-1.96-10.3,1.59-19.74,5.74-28.32,12.44-8.59,6.7-15.78,14.62-21.6,23.75-4.93,7.75-8.55,15.75-11.01,23.98-1.05,1.7-2.12,3.39-3.27,5.06-2.77,4.04-5.53,7.58-8.26,10.63-2.73,3.05-5.1,4.73-7.12,5.04-2.24,.35-3.14-.5-2.72-2.55,.42-2.04,1.3-4.92,2.63-8.65,1.32-3.72,2.67-8.05,4.02-12.99,1.36-4.93,1.84-10.12,1.47-15.56-.38-5.44-2.03-9.69-4.95-12.76-2.93-3.06-6.03-5.44-9.31-7.14-3.97-1.8-8.35-3-13.14-3.58-.26-3.7-1.51-6.35-3.77-7.99-2.26-1.63-4.65-2.69-7.17-3.18-2.97-.41-6.36-.44-10.18-.07-.54,8.62-2.66,17.98-6.37,28.07-3.71,10.1-7.96,19.78-12.75,29.06-4.79,9.28-9.58,17.62-14.39,25.04-.44,.68-.83,1.26-1.25,1.9-2.02,2.5-4.11,4.92-6.27,7.24-8.55,9.17-18.12,15.19-28.44,17.89-7.47,1.96-13.33,.77-17.9-3.64-4.91-4.73-8.6-11.73-10.98-20.82-2.78-10.65-3.92-23.54-3.41-38.3,.52-13.79,2.54-28.61,5.98-43.98,4.92-20.31,12.21-38.14,21.66-53,3.53-5.55,6.91-10.25,10.12-14.12,.03-.04,.07-.05,.1-.09,.08-.12,.2-.23,.29-.35,.45-.54,.89-1.03,1.34-1.53,3.68-3.65,10.17-6.73,14.64-4.14,4.93,2.85,5.01,10.8,3.83,16.43-1.03,3.73-2.26,7.63-3.9,11.89-4.6,11.94-10.04,22.98-16.18,32.81-7.32,11.74-11.96,15.39-14.56,16.39-1.1,.42-1.85,1.43-1.94,2.6-.09,1.17,.5,2.29,1.51,2.87,5.08,2.93,10.73,4.36,16.91,4.26,5.91-.09,10.58-.6,14.28-1.56,4.57-1.2,9.15-3.13,13.64-5.77,8.06-4.92,14.23-13.05,18.36-24.24,3.27-9.32,5.06-18.6,5.33-27.59,.25-8.93-.48-16.72-2.16-23.15-1.8-6.9-5.55-13.45-11.16-19.48-5.02-5.32-11.56-9.38-19.43-12.06-7.99-2.72-17.39-2.7-27.96,.06-13.5,3.52-25.65,10.15-36.1,19.71-10.35,9.47-19.2,20.93-26.32,34.06-7.1,13.11-12.67,27.36-16.56,42.35-3.89,15-6.17,30.19-6.78,45.17-.62,15.24-.09,26.49,1.61,34.36,1.65,7.63,2.72,12.36,3.19,14.18,2.87,11.01,7.18,20.74,12.79,28.88,6.6,10.01,15.25,17.2,25.72,21.38,5.57,2.22,11.71,3.33,18.36,3.33,5.87,0,12.15-.87,18.79-2.6,15.8-4.12,30.93-16.98,43.76-32.69,1.65-1.86,3.33-3.89,5.07-6.28,1.44-1.97,2.88-4.07,4.32-6.3,5.72-8.33,10.79-16.99,14.96-25.28,4.06-7.13,6.64-12.15,8.55-17.14,2.98-5.99,5.99-12.25,9.06-18.86,2.22-.56,4.34-1,6.36-1.31,1.56-.24,3.04-.19,4.42,.14,1.38,.34,2.12,1.15,2.21,2.45,.09,1.3-1,4.37-3.27,9.2-2.27,4.84-4.83,10.38-7.67,16.62-2.85,6.24-5.36,12.54-7.52,18.89-2.16,6.36-3.09,11.7-2.79,16.03,.15,2.17,.6,4.56,1.34,7.18,.74,2.62,1.98,5,3.72,7.14,1.73,2.15,4.16,3.79,7.3,4.95,3.13,1.16,7.27,1.34,12.42,.55,6.04-.93,11.89-4.66,17.55-11.18,5.66-6.52,10.91-13.95,15.76-22.3,.33-.57,.6-1.14,.93-1.71,.09,.35,.12,.72,.22,1.06,2.24,7.89,7.13,13.94,14.66,18.16,7.53,4.22,18.23,5.25,32.11,3.12,8.06-1.24,15.34-4.66,21.85-10.27,3.71-3.2,7.15-6.81,10.38-10.75,0,.54-.02,1.11,.02,1.59,.14,1.95,1.33,3.63,3.57,5.03,2.25,1.41,4.92,2.47,8.02,3.2,3.1,.73,6.19,1.18,9.25,1.36,3.07,.18,5.49,.14,7.29-.14,3.8-.59,5.62-2.18,5.44-4.78-.26-.4-.41-1.03-.47-1.9-.27-3.9,.53-8.73,2.39-14.49,1.86-5.76,4.39-11.78,7.57-18.08,3.18-6.29,6.65-12.52,10.41-18.68,3.76-6.16,7.39-11.7,10.9-16.62,3.5-4.92,6.62-8.95,9.34-12.11,2.72-3.15,4.53-4.8,5.43-4.94-3.24,5.54-6.57,11.31-10,17.3-3.43,6-6.46,12.11-9.08,18.31-2.63,6.21-4.75,12.23-6.39,18.06-1.63,5.83-2.28,11.24-1.93,16.22,.21,3.04,1.68,5.54,4.42,7.53,2.73,1.99,5.83,3.43,9.29,4.31,3.45,.89,6.81,1.14,10.06,.75,3.25-.39,5.5-1.34,6.76-2.85,.63-.75,1.08-2.35,1.36-4.81l-.16-2.27c.19-3.75,1.29-8.35,3.29-13.81,2-5.45,4.49-11.14,7.47-17.08,2.98-5.93,6.31-11.81,9.98-17.63,3.67-5.82,7.09-11.05,10.28-15.71,3.18-4.65,6.03-8.43,8.55-11.33,2.51-2.9,4.22-4.43,5.11-4.57-4.73,6.86-8.87,13.96-12.44,21.29-3.19,6.19-5.94,13.02-8.25,20.48-2.31,7.47-3.24,14.57-2.77,21.28,.34,4.99,1.41,8.98,3.2,11.98,1.79,3.01,3.98,5.25,6.57,6.7,2.59,1.46,5.25,2.31,7.98,2.55,2.73,.24,5.32,.16,7.79-.22,4.7-.72,9.33-3.19,13.91-7.4,4.57-4.2,9.1-9.78,13.6-16.71,4.49-6.93,8.96-15.17,13.39-24.72,.71-1.53,1.42-3.13,2.13-4.71,.21,3.52,.61,6.97,1.25,10.33,.64,3.32,1.47,6.59,2.51,9.82,5.71,18.02,18.45,25.14,38.22,21.35,23.1-4.43,41.48-21.66,55.14-51.69,13.65-30.03,18.22-56.84,13.7-80.45ZM298.92,124.37c4.24-4.05,9.27-6.52,15.09-7.42,4.03-.62,5.99,.72,5.88,4.02-.11,3.3-1.46,6.74-4.04,10.31-2.58,3.57-6.18,6.32-10.8,8.23-4.62,1.92-9.53,1.2-14.74-2.16,1.49-4.61,4.36-8.93,8.6-12.98Zm242.71-13.71c-.42-2.21-.37-5.08,.15-8.61,1.28-6.19,3.29-11.3,6.04-15.33,2.75-4.03,5.34-6.53,7.76-7.49l1.63-.31c1.47,.29,2.42,1.61,2.87,3.96,.12,.62,.22,1.32,.29,2.09,.21,3.68-.24,7.78-1.34,12.28-1.11,4.51-2.58,8.23-4.42,11.15-3.18,4.4-5.88,6.82-8.12,7.24-.88,.17-1.69,0-2.42-.5-1.23-.91-2.05-2.4-2.45-4.47Z"/></g><path class="cls-1" d="M352.64,87.7c1.65,.16,2.76-.29,3.32-1.38,.56-1.08,1.78-2.78,3.65-5.1,1.87-2.32,5-5.31,9.4-8.97,4.4-3.66,11.26-7.98,20.6-12.98,1.9-1.18,2.79-2.74,2.67-4.69-.12-1.94-.96-3.9-2.52-5.88-1.56-1.97-3.57-3.77-6.03-5.38-2.47-1.61-4.88-2.53-7.24-2.77-2.83-.28-6.2,.7-10.09,2.93-3.9,2.23-7.66,5.04-11.29,8.44-3.63,3.39-6.87,6.95-9.71,10.64-2.85,3.7-4.52,6.89-5.01,9.57-.99,5.37-.08,9.21,2.73,11.54,2.81,2.33,5.99,3.67,9.53,4.02Z"/></svg>