<?xml version="1.0" encoding="UTF-8"?><svg id="Layer_3" xmlns="http://www.w3.org/2000/svg" viewBox="0 0 1920 268"><defs><style>.cls-1{fill:#ff1e7c;}</style></defs><path class="cls-1" d="M1919.28,44.21c-9.98,18.57-45.62,26.53-71.19,23.56-37.66-4.39-62.65-48.16-100.14-42.8-28.39,4.05-42.5,34.37-69.13,43.99-19.91,7.19-33.56,13.44-62.68,10.82-13.24-1.19-25.78-7.53-38.96-9.32v-.19c-25.96-8-69.89-15-86.86-23-13.39-6.31-34.94-23-56.91-31-27.05-9.85-44.24-11.49-71.02-1.18-31.51,12.13-47.71,48.1-81.38,54.09-41.1,7.32-75.3-35.03-117.2-34.07-38.01,.88-68.27,37.27-105.97,32.89-37.66-4.39-62.65-48.16-100.14-42.8-28.39,4.05-42.5,34.37-69.13,43.99-19.91,7.19-33.56,13.44-62.68,10.82-12.91-1.16-25.14-7.21-37.95-9.17-26.23-7.61-67.4-14.38-83.71-22.06-13.39-6.31-34.94-23-56.91-31-27.05-9.85-44.24-11.49-71.02-1.18-31.51,12.13-47.71,48.1-81.38,54.09-41.1,7.32-75.3-35.03-117.2-34.07-38.01,.88-68.27,37.27-105.97,32.89-37.66-4.39-62.65-48.16-100.14-42.8-28.39,4.05-42.5,34.37-69.13,43.99-19.91,7.19-33.56,13.44-62.68,10.82-13.4-1.21-26.07-7.69-39.42-9.39v195.65l1918.89-.74s.2-223.2,0-222.82Z"/></svg>