<?xml version="1.0" encoding="UTF-8"?><svg id="Layer_3" xmlns="http://www.w3.org/2000/svg" viewBox="0 0 657 308"><defs><style>.cls-1{fill:#fff;}.cls-2{stroke:#ff1e7c;stroke-width:32.68px;}.cls-2,.cls-3{fill:#ff1e7c;}.cls-2,.cls-4,.cls-5{stroke-miterlimit:2.61;}.cls-4{fill:#ac248c;stroke:#d32274;stroke-width:12.25px;}.cls-6{fill:none;}.cls-5{fill:#a42064;stroke:#a42064;stroke-width:2.04px;}</style></defs><path class="cls-3" d="M102.78,127.43c-3.5,15.19-11.62,28.84-19.03,42.55-7.41,13.72-14.35,28.26-15.12,43.84-.77,15.57,6.02,32.47,19.99,39.4,9.46,4.69,20.83,4.2,30.89,.97,10.06-3.23,19.09-8.97,28-14.65,8.43-5.38,16.86-10.76,25.29-16.13,4.43-2.82,9-5.8,11.75-10.26,2.9-4.7,3.4-10.45,3.75-15.97,1.49-23.66,1.49-47.41,0-71.07-.14-2.25-.51-4.86-2.45-6.01-1.11-.65-2.47-.65-3.75-.62-33.25,.8-66.34,7.82-97.05,20.57"/><g><g><path class="cls-2" d="M559.21,147.9c2.38-.45,5.25-3.01,8.62-7.69,1.95-3.1,3.51-7.06,4.69-11.85,1.17-4.78,1.65-9.13,1.42-13.04-.08-.82-.18-1.56-.31-2.22-.48-2.49-1.49-3.89-3.05-4.2l-1.73,.33c-2.57,1.02-5.32,3.68-8.24,7.96-2.92,4.28-5.06,9.71-6.42,16.28-.55,3.75-.61,6.8-.16,9.15,.42,2.2,1.29,3.78,2.6,4.74,.78,.54,1.63,.71,2.57,.53Z"/><path class="cls-2" d="M302.81,173.27c4.9-2.03,8.72-4.95,11.47-8.74,2.74-3.79,4.17-7.44,4.29-10.95,.12-3.51-1.96-4.93-6.24-4.27-6.18,.95-11.52,3.58-16.03,7.88-4.51,4.3-7.55,8.9-9.13,13.79,5.53,3.57,10.75,4.33,15.65,2.3Z"/><path class="cls-2" d="M635.03,65.09l-.11-.55c-6.38-29.79-27.51-41.25-63.37-34.38-5.35,1.02-11.01,2.46-17.02,4.29-5.2,1.38-10.11,2.51-14.73,3.4-29.01,5.56-45.88,1.3-50.59-12.77-6.47,3.3-10.07,7.92-10.81,13.87-.72,5.95-.79,10.52-.19,13.67,.96,4.98,3.18,9.72,6.66,14.22,5.74,7.34,15.66,10.84,29.73,10.49,3.07-.35,6.17-.84,9.27-1.43,11.26-2.16,22.27-5.59,33.03-10.32,10.06-4.13,19.2-6.99,27.42-8.56l.87-.17c8.38-1.53,15.06,.53,20.04,6.19,2.89,4.16,4.9,9.21,6.05,15.14,1.32,6.9,1.44,14.97,.37,24.22-2.02,17.18-6.84,33.59-14.47,49.23-7.63,15.64-16.46,24.41-26.49,26.34l-2.16,.41c-2.58,.19-4.93-.51-7.04-2.13-2.11-1.61-3.64-3.57-4.6-5.9,10.76-2.44,19.51-9.46,26.26-21.04,6.76-11.6,9.65-24.03,8.68-37.29-.14-1.12-.32-2.23-.52-3.32-1.83-9.53-5.81-16.25-11.95-20.17-6.88-4.31-13.61-5.83-20.18-4.57-17.61,3.38-29.54,14.91-35.78,34.61-1.14,3.59-2.07,7.1-2.9,10.57-.17,.26-.42,.41-.57,.71-1.28,2.29-3.15,5.72-5.59,10.28-2.45,4.56-5.31,9.13-8.6,13.71-3.29,4.58-6.78,8.72-10.49,12.43-3.71,3.71-7.23,5.82-10.55,6.33-4.04,.62-5.69-1.56-4.96-6.56,.74-4.99,2.79-10.83,6.18-17.52,3.38-6.68,7.49-13.19,12.34-19.51,4.84-6.33,9.47-10.64,13.88-12.95,.7-.34,1.09-1.62,1.18-3.84,.08-2.22-.62-4.55-2.11-7-1.49-2.44-3.97-4.44-7.44-6-3.47-1.56-8.41-1.84-14.83-.85-6.9,1.06-14.22,5.33-21.99,12.81-7.77,7.47-15.07,15.69-21.9,24.65,2.39-3.62,4.89-7.38,7.51-11.27,2.62-3.89,5.58-7.95,8.89-12.18,.43-.76,.37-1.63-.18-2.59-.55-.96-1.75-1.82-3.6-2.58-1.85-.76-4.47-1.28-7.86-1.58-3.39-.29-7.69-.03-12.92,.77-3.8,.59-7.89,2.38-12.24,5.37-4.36,3-8.73,6.7-13.11,11.09-4.38,4.4-8.73,9.25-13.05,14.57-4.32,5.32-8.23,10.45-11.73,15.41,3.15-6.53,6.46-12.44,9.94-17.75,3.47-5.3,6.8-9.36,9.97-12.17,1.58-1.41,2.09-2.76,1.52-4.07-.57-1.31-1.79-2.4-3.65-3.27-1.86-.87-4.25-1.49-7.15-1.86-2.91-.36-5.91-.31-9,.17-4.04,.62-8.24,3.25-12.61,7.87-4.36,4.63-8.65,10.4-12.85,17.33-4.2,6.93-8.18,14.57-11.93,22.94-.78,1.75-1.44,3.45-2.18,5.17-3.35,4.89-7.17,9.85-11.56,14.9-4.67,5.37-9.8,10.29-15.37,14.75-5.58,4.47-11.22,7.13-16.92,8.01-7.37,1.14-12.6,.11-15.71-3.08-3.1-3.19-4.72-7.39-4.83-12.58,1.31,1.66,3.26,2.93,5.85,3.81,2.58,.88,6.25,.95,11,.22,8.32-1.28,15.57-4.02,21.77-8.24,6.19-4.21,11.08-9.03,14.67-14.47,3.59-5.44,5.84-11.01,6.77-16.74,.92-5.72,.51-10.89-1.25-15.5-1.76-4.61-4.89-8.19-9.39-10.76-4.5-2.56-10.55-3.25-18.16-2.08-10.94,1.69-20.96,6.09-30.07,13.21-9.12,7.12-16.76,15.52-22.94,25.22-5.24,8.23-9.08,16.72-11.69,25.46-1.12,1.8-2.25,3.6-3.47,5.38-2.95,4.29-5.87,8.05-8.77,11.29-2.9,3.24-5.42,5.02-7.56,5.35-2.38,.37-3.34-.53-2.89-2.7,.45-2.17,1.38-5.23,2.79-9.18,1.4-3.95,2.83-8.54,4.27-13.79,1.44-5.24,1.96-10.75,1.56-16.52-.4-5.77-2.15-10.29-5.26-13.55-3.11-3.25-6.41-5.78-9.89-7.58-4.22-1.92-8.87-3.18-13.95-3.8-.27-3.93-1.61-6.75-4.01-8.48-2.41-1.73-4.94-2.86-7.62-3.38-3.15-.44-6.76-.47-10.81-.08-.57,9.15-2.82,19.09-6.77,29.81-3.94,10.72-8.46,21.01-13.54,30.86-5.08,9.85-10.17,18.72-15.28,26.59-.47,.72-.88,1.34-1.33,2.02-2.14,2.66-4.36,5.22-6.66,7.68-9.08,9.74-19.24,16.14-30.2,19-7.94,2.08-14.16,.81-19.01-3.86-5.22-5.02-9.14-12.46-11.66-22.11-2.95-11.31-4.16-25-3.62-40.67,.55-14.65,2.7-30.38,6.35-46.7,5.23-21.56,12.96-40.5,23-56.28,9.84-15.48,18.66-24.87,25.79-27.8l.82-.21c2.82-.73,4.98-.74,6.23,0,.3,.17,1.2,.71,1.72,2.73,.24,.91,.39,1.97,.46,3.04,.17,7.99-2.17,18.36-6.97,30.83-4.88,12.68-10.66,24.41-17.18,34.85-7.77,12.47-12.7,16.35-15.46,17.41-1.16,.44-1.96,1.52-2.06,2.76s.53,2.43,1.61,3.05c5.4,3.11,11.39,4.63,17.96,4.52,6.28-.09,11.24-.64,15.16-1.66,4.85-1.27,9.71-3.32,14.49-6.12,8.56-5.22,15.11-13.86,19.5-25.74,3.47-9.9,5.37-19.75,5.66-29.3,.26-9.48-.51-17.75-2.3-24.58-1.91-7.33-5.89-14.29-11.86-20.68-5.33-5.65-12.28-9.96-20.64-12.8-8.48-2.89-18.47-2.87-29.7,.06-14.33,3.74-27.23,10.78-38.34,20.93-10.99,10.05-20.39,22.22-27.95,36.17-7.54,13.92-13.46,29.05-17.59,44.97-4.13,15.92-6.55,32.06-7.2,47.97-.66,16.19-.1,28.13,1.71,36.49,1.75,8.1,2.88,13.12,3.39,15.06,3.05,11.69,7.63,22.02,13.58,30.67,7.01,10.63,16.2,18.26,27.31,22.7,5.92,2.35,12.43,3.53,19.49,3.53,6.24,0,12.9-.92,19.96-2.76,16.78-4.38,32.85-18.03,46.48-34.72,1.75-1.98,3.53-4.13,5.38-6.67,1.52-2.09,3.06-4.33,4.59-6.69,6.07-8.85,11.46-18.04,15.89-26.85,4.31-7.57,7.05-12.91,9.08-18.2,3.16-6.36,6.36-13.01,9.62-20.03,2.36-.59,4.61-1.06,6.75-1.39,1.66-.26,3.23-.2,4.69,.15,1.47,.36,2.25,1.22,2.34,2.6,.1,1.38-1.06,4.64-3.47,9.78-2.41,5.14-5.13,11.02-8.15,17.65-3.03,6.63-5.69,13.32-7.98,20.06-2.3,6.75-3.29,12.42-2.97,17.02,.16,2.3,.63,4.84,1.43,7.63,.79,2.79,2.11,5.31,3.95,7.59,1.83,2.28,4.42,4.03,7.75,5.26,3.33,1.23,7.72,1.42,13.19,.58,6.42-.99,12.63-4.94,18.64-11.87,6.01-6.92,11.59-14.81,16.74-23.68,.35-.6,.64-1.22,.98-1.82,.09,.37,.13,.76,.23,1.13,2.38,8.38,7.57,14.81,15.56,19.29,7.99,4.48,19.36,5.58,34.1,3.31,8.56-1.32,16.29-4.95,23.21-10.9,3.94-3.39,7.6-7.23,11.02-11.41,0,.57-.02,1.18,.02,1.69,.14,2.07,1.41,3.85,3.79,5.34,2.39,1.5,5.23,2.63,8.52,3.39,3.3,.77,6.57,1.25,9.83,1.45,3.26,.2,5.83,.15,7.74-.15,4.04-.62,5.96-2.31,5.77-5.07-.27-.42-.43-1.09-.5-2.02-.29-4.14,.56-9.27,2.54-15.39,1.98-6.11,4.66-12.51,8.04-19.2,3.38-6.68,7.06-13.29,11.06-19.84,3.99-6.54,7.84-12.42,11.57-17.65,3.72-5.22,7.03-9.51,9.92-12.86,2.89-3.35,4.81-5.1,5.76-5.25-3.44,5.88-6.98,12.01-10.62,18.38-3.65,6.38-6.86,12.86-9.64,19.45-2.79,6.59-5.05,12.98-6.78,19.18-1.73,6.2-2.42,11.94-2.05,17.23,.22,3.22,1.79,5.89,4.7,7.99,2.9,2.11,6.19,3.64,9.86,4.58,3.67,.95,7.23,1.21,10.68,.79,3.45-.41,5.85-1.42,7.18-3.02,.67-.8,1.15-2.5,1.45-5.11l-.17-2.41c.2-3.98,1.37-8.87,3.49-14.66,2.12-5.79,4.77-11.83,7.93-18.14,3.17-6.3,6.7-12.54,10.6-18.72,3.9-6.18,7.53-11.74,10.92-16.68,3.38-4.93,6.41-8.95,9.08-12.03,2.67-3.08,4.48-4.7,5.43-4.85-5.02,7.29-9.42,14.82-13.21,22.61-3.39,6.57-6.31,13.82-8.77,21.75-2.46,7.94-3.44,15.47-2.94,22.6,.37,5.29,1.5,9.53,3.4,12.73,1.9,3.19,4.22,5.57,6.98,7.12,2.75,1.55,5.57,2.45,8.47,2.7,2.9,.25,5.65,.17,8.27-.23,4.99-.77,9.91-3.39,14.77-7.86,4.85-4.46,9.67-10.38,14.45-17.75,4.77-7.36,9.51-16.11,14.22-26.25,.75-1.63,1.51-3.32,2.26-5,.23,3.74,.64,7.4,1.33,10.97,.67,3.52,1.56,7,2.67,10.43,6.06,19.14,19.59,26.7,40.59,22.67,24.54-4.7,44.05-23,58.56-54.89,14.5-31.89,19.35-60.37,14.55-85.44Zm-338.74,92.1c4.51-4.3,9.85-6.92,16.03-7.88,4.28-.66,6.36,.76,6.24,4.27-.12,3.51-1.55,7.16-4.29,10.95-2.74,3.8-6.56,6.71-11.47,8.74-4.9,2.04-10.12,1.27-15.65-2.3,1.58-4.89,4.62-9.49,9.13-13.79Zm257.75-14.56c-.45-2.35-.4-5.4,.16-9.15,1.36-6.57,3.5-12,6.42-16.28,2.92-4.28,5.67-6.93,8.24-7.96l1.73-.33c1.56,.31,2.57,1.71,3.05,4.2,.13,.66,.23,1.4,.31,2.22,.23,3.91-.25,8.26-1.42,13.04-1.18,4.79-2.74,8.74-4.69,11.85-3.37,4.68-6.25,7.24-8.62,7.69-.94,.18-1.8,0-2.57-.53-1.31-.96-2.17-2.54-2.6-4.74Z"/><path class="cls-2" d="M353.33,118.26c1.75,.17,2.93-.31,3.52-1.46,.59-1.15,1.89-2.95,3.87-5.42,1.98-2.46,5.31-5.64,9.99-9.52,4.67-3.89,11.96-8.48,21.87-13.78,2.01-1.25,2.96-2.91,2.83-4.98-.13-2.06-1.02-4.15-2.67-6.25-1.66-2.1-3.79-4-6.41-5.71-2.62-1.71-5.18-2.69-7.68-2.94-3.01-.3-6.58,.74-10.71,3.11-4.14,2.37-8.14,5.36-11.99,8.96-3.86,3.61-7.29,7.38-10.32,11.3-3.02,3.93-4.8,7.32-5.32,10.17-1.05,5.7-.09,9.78,2.9,12.25,2.99,2.47,6.36,3.89,10.12,4.27Z"/></g><g><path class="cls-4" d="M559.21,154.36c2.38-.45,5.25-3.01,8.62-7.69,1.95-3.1,3.51-7.06,4.69-11.85,1.17-4.78,1.65-9.13,1.42-13.04-.08-.82-.18-1.56-.31-2.22-.48-2.49-1.49-3.89-3.05-4.2l-1.73,.33c-2.57,1.02-5.32,3.68-8.24,7.96-2.92,4.28-5.06,9.71-6.42,16.28-.55,3.75-.61,6.8-.16,9.15,.42,2.2,1.29,3.78,2.6,4.74,.78,.54,1.63,.71,2.57,.53Z"/><path class="cls-4" d="M302.81,179.73c4.9-2.03,8.72-4.95,11.47-8.74,2.74-3.79,4.17-7.44,4.29-10.95,.12-3.51-1.96-4.93-6.24-4.27-6.18,.95-11.52,3.58-16.03,7.88-4.51,4.3-7.55,8.9-9.13,13.79,5.53,3.57,10.75,4.33,15.65,2.3Z"/><path class="cls-4" d="M635.03,71.55l-.11-.55c-6.38-29.79-27.51-41.25-63.37-34.38-5.35,1.02-11.01,2.46-17.02,4.29-5.2,1.38-10.11,2.51-14.73,3.4-29.01,5.56-45.88,1.3-50.59-12.77-6.47,3.3-10.07,7.92-10.81,13.87-.72,5.95-.79,10.52-.19,13.67,.96,4.98,3.18,9.72,6.66,14.22,5.74,7.34,15.66,10.84,29.73,10.49,3.07-.35,6.17-.84,9.27-1.43,11.26-2.16,22.27-5.59,33.03-10.32,10.06-4.13,19.2-6.99,27.42-8.56l.87-.17c8.38-1.53,15.06,.53,20.04,6.19,2.89,4.16,4.9,9.21,6.05,15.14,1.32,6.9,1.44,14.97,.37,24.22-2.02,17.18-6.84,33.59-14.47,49.23-7.63,15.64-16.46,24.41-26.49,26.34l-2.16,.41c-2.58,.19-4.93-.51-7.04-2.13-2.11-1.61-3.64-3.57-4.6-5.9,10.76-2.44,19.51-9.46,26.26-21.04,6.76-11.6,9.65-24.03,8.68-37.29-.14-1.12-.32-2.23-.52-3.32-1.83-9.53-5.81-16.25-11.95-20.17-6.88-4.31-13.61-5.83-20.18-4.57-17.61,3.38-29.54,14.91-35.78,34.61-1.14,3.59-2.07,7.1-2.9,10.57-.17,.26-.42,.41-.57,.71-1.28,2.29-3.15,5.72-5.59,10.28-2.45,4.56-5.31,9.13-8.6,13.71-3.29,4.58-6.78,8.72-10.49,12.43-3.71,3.71-7.23,5.82-10.55,6.33-4.04,.62-5.69-1.56-4.96-6.56,.74-4.99,2.79-10.83,6.18-17.52,3.38-6.68,7.49-13.19,12.34-19.51,4.84-6.33,9.47-10.64,13.88-12.95,.7-.34,1.09-1.62,1.18-3.84,.08-2.22-.62-4.55-2.11-7-1.49-2.44-3.97-4.44-7.44-6-3.47-1.56-8.41-1.84-14.83-.85-6.9,1.06-14.22,5.33-21.99,12.81-7.77,7.47-15.07,15.69-21.9,24.65,2.39-3.62,4.89-7.38,7.51-11.27,2.62-3.89,5.58-7.95,8.89-12.18,.43-.76,.37-1.63-.18-2.59-.55-.96-1.75-1.82-3.6-2.58-1.85-.76-4.47-1.28-7.86-1.58-3.39-.29-7.69-.03-12.92,.77-3.8,.59-7.89,2.38-12.24,5.37-4.36,3-8.73,6.7-13.11,11.09-4.38,4.4-8.73,9.25-13.05,14.57-4.32,5.32-8.23,10.45-11.73,15.41,3.15-6.53,6.46-12.44,9.94-17.75,3.47-5.3,6.8-9.36,9.97-12.17,1.58-1.41,2.09-2.76,1.52-4.07-.57-1.31-1.79-2.4-3.65-3.27-1.86-.87-4.25-1.49-7.15-1.86-2.91-.36-5.91-.31-9,.17-4.04,.62-8.24,3.25-12.61,7.87-4.36,4.63-8.65,10.4-12.85,17.33-4.2,6.93-8.18,14.57-11.93,22.94-.78,1.75-1.44,3.45-2.18,5.17-3.35,4.89-7.17,9.85-11.56,14.9-4.67,5.37-9.8,10.29-15.37,14.75-5.58,4.47-11.22,7.13-16.92,8.01-7.37,1.14-12.6,.11-15.71-3.08-3.1-3.19-4.72-7.39-4.83-12.58,1.31,1.66,3.26,2.93,5.85,3.81,2.58,.88,6.25,.95,11,.22,8.32-1.28,15.57-4.02,21.77-8.24,6.19-4.21,11.08-9.03,14.67-14.47,3.59-5.44,5.84-11.01,6.77-16.74,.92-5.72,.51-10.89-1.25-15.5-1.76-4.61-4.89-8.19-9.39-10.76-4.5-2.56-10.55-3.25-18.16-2.08-10.94,1.69-20.96,6.09-30.07,13.21-9.12,7.12-16.76,15.52-22.94,25.22-5.24,8.23-9.08,16.72-11.69,25.46-1.12,1.8-2.25,3.6-3.47,5.38-2.95,4.29-5.87,8.05-8.77,11.29-2.9,3.24-5.42,5.02-7.56,5.35-2.38,.37-3.34-.53-2.89-2.7,.45-2.17,1.38-5.23,2.79-9.18,1.4-3.95,2.83-8.54,4.27-13.79,1.44-5.24,1.96-10.75,1.56-16.52-.4-5.77-2.15-10.29-5.26-13.55-3.11-3.25-6.41-5.78-9.89-7.58-4.22-1.92-8.87-3.18-13.95-3.8-.27-3.93-1.61-6.75-4.01-8.48-2.41-1.73-4.94-2.86-7.62-3.38-3.15-.44-6.76-.47-10.81-.08-.57,9.15-2.82,19.09-6.77,29.81-3.94,10.72-8.46,21.01-13.54,30.86-5.08,9.85-10.17,18.72-15.28,26.59-.47,.72-.88,1.34-1.33,2.02-2.14,2.66-4.36,5.22-6.66,7.68-9.08,9.74-19.24,16.14-30.2,19-7.94,2.08-14.16,.81-19.01-3.86-5.22-5.02-9.14-12.46-11.66-22.11-2.95-11.31-4.16-25-3.62-40.67,.55-14.65,2.7-30.38,6.35-46.7,5.23-21.56,12.96-40.5,23-56.28,9.84-15.48,18.66-24.87,25.79-27.8l.82-.21c2.82-.73,4.98-.74,6.23,0,.3,.17,1.2,.71,1.72,2.73,.24,.91,.39,1.97,.46,3.04,.17,7.99-2.17,18.36-6.97,30.83-4.88,12.68-10.66,24.41-17.18,34.85-7.77,12.47-12.7,16.35-15.46,17.41-1.16,.44-1.96,1.52-2.06,2.76s.53,2.43,1.61,3.05c5.4,3.11,11.39,4.63,17.96,4.52,6.28-.09,11.24-.64,15.16-1.66,4.85-1.27,9.71-3.32,14.49-6.12,8.56-5.22,15.11-13.86,19.5-25.74,3.47-9.9,5.37-19.75,5.66-29.3,.26-9.48-.51-17.75-2.3-24.58-1.91-7.33-5.89-14.29-11.86-20.68-5.33-5.65-12.28-9.96-20.64-12.8-8.48-2.89-18.47-2.87-29.7,.06-14.33,3.74-27.23,10.78-38.34,20.93-10.99,10.05-20.39,22.22-27.95,36.17-7.54,13.92-13.46,29.05-17.59,44.97-4.13,15.92-6.55,32.06-7.2,47.97-.66,16.19-.1,28.13,1.71,36.49,1.75,8.1,2.88,13.12,3.39,15.06,3.05,11.69,7.63,22.02,13.58,30.67,7.01,10.63,16.2,18.26,27.31,22.7,5.92,2.35,12.43,3.53,19.49,3.53,6.24,0,12.9-.92,19.96-2.76,16.78-4.38,32.85-18.03,46.48-34.72,1.75-1.98,3.53-4.13,5.38-6.67,1.52-2.09,3.06-4.33,4.59-6.69,6.07-8.85,11.46-18.04,15.89-26.85,4.31-7.57,7.05-12.91,9.08-18.2,3.16-6.36,6.36-13.01,9.62-20.03,2.36-.59,4.61-1.06,6.75-1.39,1.66-.26,3.23-.2,4.69,.15,1.47,.36,2.25,1.22,2.34,2.6,.1,1.38-1.06,4.64-3.47,9.78-2.41,5.14-5.13,11.02-8.15,17.65-3.03,6.63-5.69,13.32-7.98,20.06-2.3,6.75-3.29,12.42-2.97,17.02,.16,2.3,.63,4.84,1.43,7.63,.79,2.79,2.11,5.31,3.95,7.59,1.83,2.28,4.42,4.03,7.75,5.26,3.33,1.23,7.72,1.42,13.19,.58,6.42-.99,12.63-4.94,18.64-11.87,6.01-6.92,11.59-14.81,16.74-23.68,.35-.6,.64-1.22,.98-1.82,.09,.37,.13,.76,.23,1.13,2.38,8.38,7.57,14.81,15.56,19.29,7.99,4.48,19.36,5.58,34.1,3.31,8.56-1.32,16.29-4.95,23.21-10.9,3.94-3.39,7.6-7.23,11.02-11.41,0,.57-.02,1.18,.02,1.69,.14,2.07,1.41,3.85,3.79,5.34,2.39,1.5,5.23,2.63,8.52,3.39,3.3,.77,6.57,1.25,9.83,1.45,3.26,.2,5.83,.15,7.74-.15,4.04-.62,5.96-2.31,5.77-5.07-.27-.42-.43-1.09-.5-2.02-.29-4.14,.56-9.27,2.54-15.39,1.98-6.11,4.66-12.51,8.04-19.2,3.38-6.68,7.06-13.29,11.06-19.84,3.99-6.54,7.84-12.42,11.57-17.65,3.72-5.22,7.03-9.51,9.92-12.86,2.89-3.35,4.81-5.1,5.76-5.25-3.44,5.88-6.98,12.01-10.62,18.38-3.65,6.38-6.86,12.86-9.64,19.45-2.79,6.59-5.05,12.98-6.78,19.18-1.73,6.2-2.42,11.94-2.05,17.23,.22,3.22,1.79,5.89,4.7,7.99,2.9,2.11,6.19,3.64,9.86,4.58,3.67,.95,7.23,1.21,10.68,.79,3.45-.41,5.85-1.42,7.18-3.02,.67-.8,1.15-2.5,1.45-5.11l-.17-2.41c.2-3.98,1.37-8.87,3.49-14.66,2.12-5.79,4.77-11.83,7.93-18.14,3.17-6.3,6.7-12.54,10.6-18.72,3.9-6.18,7.53-11.74,10.92-16.68,3.38-4.93,6.41-8.95,9.08-12.03,2.67-3.08,4.48-4.7,5.43-4.85-5.02,7.29-9.42,14.82-13.21,22.61-3.39,6.57-6.31,13.82-8.77,21.75-2.46,7.94-3.44,15.47-2.94,22.6,.37,5.29,1.5,9.53,3.4,12.73,1.9,3.19,4.22,5.57,6.98,7.12,2.75,1.55,5.57,2.45,8.47,2.7,2.9,.25,5.65,.17,8.27-.23,4.99-.77,9.91-3.39,14.77-7.86,4.85-4.46,9.67-10.38,14.45-17.75,4.77-7.36,9.51-16.11,14.22-26.25,.75-1.63,1.51-3.32,2.26-5,.23,3.74,.64,7.4,1.33,10.97,.67,3.52,1.56,7,2.67,10.43,6.06,19.14,19.59,26.7,40.59,22.67,24.54-4.7,44.05-23,58.56-54.89,14.5-31.89,19.35-60.37,14.55-85.44Zm-338.74,92.1c4.51-4.3,9.85-6.92,16.03-7.88,4.28-.66,6.36,.76,6.24,4.27-.12,3.51-1.55,7.16-4.29,10.95-2.74,3.8-6.56,6.71-11.47,8.74-4.9,2.04-10.12,1.27-15.65-2.3,1.58-4.89,4.62-9.49,9.13-13.79Zm257.75-14.56c-.45-2.35-.4-5.4,.16-9.15,1.36-6.57,3.5-12,6.42-16.28,2.92-4.28,5.67-6.93,8.24-7.96l1.73-.33c1.56,.31,2.57,1.71,3.05,4.2,.13,.66,.23,1.4,.31,2.22,.23,3.91-.25,8.26-1.42,13.04-1.18,4.79-2.74,8.74-4.69,11.85-3.37,4.68-6.25,7.24-8.62,7.69-.94,.18-1.8,0-2.57-.53-1.31-.96-2.17-2.54-2.6-4.74Z"/><path class="cls-4" d="M353.33,124.71c1.75,.17,2.93-.31,3.52-1.46,.59-1.15,1.89-2.95,3.87-5.42,1.98-2.46,5.31-5.64,9.99-9.52,4.67-3.89,11.96-8.48,21.87-13.78,2.01-1.25,2.96-2.91,2.83-4.98-.13-2.06-1.02-4.15-2.67-6.25-1.66-2.1-3.79-4-6.41-5.71-2.62-1.71-5.18-2.69-7.68-2.94-3.01-.3-6.58,.74-10.71,3.11-4.14,2.37-8.14,5.36-11.99,8.96-3.86,3.61-7.29,7.38-10.32,11.3-3.02,3.93-4.8,7.32-5.32,10.17-1.05,5.7-.09,9.78,2.9,12.25,2.99,2.47,6.36,3.89,10.12,4.27Z"/></g><g><path class="cls-5" d="M558.81,151.94c2.38-.45,5.25-3.01,8.62-7.69,1.95-3.1,3.51-7.06,4.69-11.85,1.17-4.78,1.65-9.13,1.42-13.04-.08-.82-.18-1.56-.31-2.22-.48-2.49-1.49-3.89-3.05-4.2l-1.73,.33c-2.57,1.02-5.32,3.68-8.24,7.96-2.92,4.28-5.06,9.71-6.42,16.28-.55,3.75-.61,6.8-.16,9.15,.42,2.2,1.29,3.78,2.6,4.74,.78,.54,1.63,.71,2.57,.53Z"/><path class="cls-5" d="M302.4,177.31c4.9-2.03,8.72-4.95,11.47-8.74,2.74-3.79,4.17-7.44,4.29-10.95,.12-3.51-1.96-4.93-6.24-4.27-6.18,.95-11.52,3.58-16.03,7.88-4.51,4.3-7.55,8.9-9.13,13.79,5.53,3.57,10.75,4.33,15.65,2.3Z"/><path class="cls-5" d="M634.63,69.13l-.11-.55c-6.38-29.79-27.51-41.25-63.37-34.38-5.35,1.02-11.01,2.46-17.02,4.29-5.2,1.38-10.11,2.51-14.73,3.4-29.01,5.56-45.88,1.3-50.59-12.77-6.47,3.3-10.07,7.92-10.81,13.87-.72,5.95-.79,10.52-.19,13.67,.96,4.98,3.18,9.72,6.66,14.22,5.74,7.34,15.66,10.84,29.73,10.49,3.07-.35,6.17-.84,9.27-1.43,11.26-2.16,22.27-5.59,33.03-10.32,10.06-4.13,19.2-6.99,27.42-8.56l.87-.17c8.38-1.53,15.06,.53,20.04,6.19,2.89,4.16,4.9,9.21,6.05,15.14,1.32,6.9,1.44,14.97,.37,24.22-2.02,17.18-6.84,33.59-14.47,49.23-7.63,15.64-16.46,24.41-26.49,26.34l-2.16,.41c-2.58,.19-4.93-.51-7.04-2.13-2.11-1.61-3.64-3.57-4.6-5.9,10.76-2.44,19.51-9.46,26.26-21.04,6.76-11.6,9.65-24.03,8.68-37.29-.14-1.12-.32-2.23-.52-3.32-1.83-9.53-5.81-16.25-11.95-20.17-6.88-4.31-13.61-5.83-20.18-4.57-17.61,3.38-29.54,14.91-35.78,34.61-1.14,3.59-2.07,7.1-2.9,10.57-.17,.26-.42,.41-.57,.71-1.28,2.29-3.15,5.72-5.59,10.28-2.45,4.56-5.31,9.13-8.6,13.71-3.29,4.58-6.78,8.72-10.49,12.43-3.71,3.71-7.23,5.82-10.55,6.33-4.04,.62-5.69-1.56-4.96-6.56,.74-4.99,2.79-10.83,6.18-17.52,3.38-6.68,7.49-13.19,12.34-19.51,4.84-6.33,9.47-10.64,13.88-12.95,.7-.34,1.09-1.62,1.18-3.84,.08-2.22-.62-4.55-2.11-7-1.49-2.44-3.97-4.44-7.44-6-3.47-1.56-8.41-1.84-14.83-.85-6.9,1.06-14.22,5.33-21.99,12.81-7.77,7.47-15.07,15.69-21.9,24.65,2.39-3.62,4.89-7.38,7.51-11.27,2.62-3.89,5.58-7.95,8.89-12.18,.43-.76,.37-1.63-.18-2.59-.55-.96-1.75-1.82-3.6-2.58-1.85-.76-4.47-1.28-7.86-1.58-3.39-.29-7.69-.03-12.92,.77-3.8,.59-7.89,2.38-12.24,5.37-4.36,3-8.73,6.7-13.11,11.09-4.38,4.4-8.73,9.25-13.05,14.57-4.32,5.32-8.23,10.45-11.73,15.41,3.15-6.53,6.46-12.44,9.94-17.75,3.47-5.3,6.8-9.36,9.97-12.17,1.58-1.41,2.09-2.76,1.52-4.07-.57-1.31-1.79-2.4-3.65-3.27-1.86-.87-4.25-1.49-7.15-1.86-2.91-.36-5.91-.31-9,.17-4.04,.62-8.24,3.25-12.61,7.87-4.36,4.63-8.65,10.4-12.85,17.33-4.2,6.93-8.18,14.57-11.93,22.94-.78,1.75-1.44,3.45-2.18,5.17-3.35,4.89-7.17,9.85-11.56,14.9-4.67,5.37-9.8,10.29-15.37,14.75-5.58,4.47-11.22,7.13-16.92,8.01-7.37,1.14-12.6,.11-15.71-3.08-3.1-3.19-4.72-7.39-4.83-12.58,1.31,1.66,3.26,2.93,5.85,3.81,2.58,.88,6.25,.95,11,.22,8.32-1.28,15.57-4.02,21.77-8.24,6.19-4.21,11.08-9.03,14.67-14.47,3.59-5.44,5.84-11.01,6.77-16.74,.92-5.72,.51-10.89-1.25-15.5-1.76-4.61-4.89-8.19-9.39-10.76-4.5-2.56-10.55-3.25-18.16-2.08-10.94,1.69-20.96,6.09-30.07,13.21-9.12,7.12-16.76,15.52-22.94,25.22-5.24,8.23-9.08,16.72-11.69,25.46-1.12,1.8-2.25,3.6-3.47,5.38-2.95,4.29-5.87,8.05-8.77,11.29-2.9,3.24-5.42,5.02-7.56,5.35-2.38,.37-3.34-.53-2.89-2.7,.45-2.17,1.38-5.23,2.79-9.18,1.4-3.95,2.83-8.54,4.27-13.79,1.44-5.24,1.96-10.75,1.56-16.52-.4-5.77-2.15-10.29-5.26-13.55-3.11-3.25-6.41-5.78-9.89-7.58-4.22-1.92-8.87-3.18-13.95-3.8-.27-3.93-1.61-6.75-4.01-8.48-2.41-1.73-4.94-2.86-7.62-3.38-3.15-.44-6.76-.47-10.81-.08-.57,9.15-2.82,19.09-6.77,29.81-3.94,10.72-8.46,21.01-13.54,30.86-5.08,9.85-10.17,18.72-15.28,26.59-.47,.72-.88,1.34-1.33,2.02-2.14,2.66-4.36,5.22-6.66,7.68-9.08,9.74-19.24,16.14-30.2,19-7.94,2.08-14.16,.81-19.01-3.86-5.22-5.02-9.14-12.46-11.66-22.11-2.95-11.31-4.16-25-3.62-40.67,.55-14.65,2.7-30.38,6.35-46.7,5.23-21.56,12.96-40.5,23-56.28,9.84-15.48,18.66-24.87,25.79-27.8l.82-.21c2.82-.73,4.98-.74,6.23,0,.3,.17,1.2,.71,1.72,2.73,.24,.91,.39,1.97,.46,3.04,.17,7.99-2.17,18.36-6.97,30.83-4.88,12.68-10.66,24.41-17.18,34.85-7.77,12.47-12.7,16.35-15.46,17.41-1.16,.44-1.96,1.52-2.06,2.76s.53,2.43,1.61,3.05c5.4,3.11,11.39,4.63,17.96,4.52,6.28-.09,11.24-.64,15.16-1.66,4.85-1.27,9.71-3.32,14.49-6.12,8.56-5.22,15.11-13.86,19.5-25.74,3.47-9.9,5.37-19.75,5.66-29.3,.26-9.48-.51-17.75-2.3-24.58-1.91-7.33-5.89-14.29-11.86-20.68-5.33-5.65-12.28-9.96-20.64-12.8-8.48-2.89-18.47-2.87-29.7,.06-14.33,3.74-27.23,10.78-38.34,20.93-10.99,10.05-20.39,22.22-27.95,36.17-7.54,13.92-13.46,29.05-17.59,44.97-4.13,15.92-6.55,32.06-7.2,47.97-.66,16.19-.1,28.13,1.71,36.49,1.75,8.1,2.88,13.12,3.39,15.06,3.05,11.69,7.63,22.02,13.58,30.67,7.01,10.63,16.2,18.26,27.31,22.7,5.92,2.35,12.43,3.53,19.49,3.53,6.24,0,12.9-.92,19.96-2.76,16.78-4.38,32.85-18.03,46.48-34.72,1.75-1.98,3.53-4.13,5.38-6.67,1.52-2.09,3.06-4.33,4.59-6.69,6.07-8.85,11.46-18.04,15.89-26.85,4.31-7.57,7.05-12.91,9.08-18.2,3.16-6.36,6.36-13.01,9.62-20.03,2.36-.59,4.61-1.06,6.75-1.39,1.66-.26,3.23-.2,4.69,.15,1.47,.36,2.25,1.22,2.34,2.6,.1,1.38-1.06,4.64-3.47,9.78-2.41,5.14-5.13,11.02-8.15,17.65-3.03,6.63-5.69,13.32-7.98,20.06-2.3,6.75-3.29,12.42-2.97,17.02,.16,2.3,.63,4.84,1.43,7.63,.79,2.79,2.11,5.31,3.95,7.59,1.83,2.28,4.42,4.03,7.75,5.26,3.33,1.23,7.72,1.42,13.19,.58,6.42-.99,12.63-4.94,18.64-11.87,6.01-6.92,11.59-14.81,16.74-23.68,.35-.6,.64-1.22,.98-1.82,.09,.37,.13,.76,.23,1.13,2.38,8.38,7.57,14.81,15.56,19.29,7.99,4.48,19.36,5.58,34.1,3.31,8.56-1.32,16.29-4.95,23.21-10.9,3.94-3.39,7.6-7.23,11.02-11.41,0,.57-.02,1.18,.02,1.69,.14,2.07,1.41,3.85,3.79,5.34,2.39,1.5,5.23,2.63,8.52,3.39,3.3,.77,6.57,1.25,9.83,1.45,3.26,.2,5.83,.15,7.74-.15,4.04-.62,5.96-2.31,5.77-5.07-.27-.42-.43-1.09-.5-2.02-.29-4.14,.56-9.27,2.54-15.39,1.98-6.11,4.66-12.51,8.04-19.2,3.38-6.68,7.06-13.29,11.06-19.84,3.99-6.54,7.84-12.42,11.57-17.65,3.72-5.22,7.03-9.51,9.92-12.86,2.89-3.35,4.81-5.1,5.76-5.25-3.44,5.88-6.98,12.01-10.62,18.38-3.65,6.38-6.86,12.86-9.64,19.45-2.79,6.59-5.05,12.98-6.78,19.18-1.73,6.2-2.42,11.94-2.05,17.23,.22,3.22,1.79,5.89,4.7,7.99,2.9,2.11,6.19,3.64,9.86,4.58,3.67,.95,7.23,1.21,10.68,.79,3.45-.41,5.85-1.42,7.18-3.02,.67-.8,1.15-2.5,1.45-5.11l-.17-2.41c.2-3.98,1.37-8.87,3.49-14.66,2.12-5.79,4.77-11.83,7.93-18.14,3.17-6.3,6.7-12.54,10.6-18.72,3.9-6.18,7.53-11.74,10.92-16.68,3.38-4.93,6.41-8.95,9.08-12.03,2.67-3.08,4.48-4.7,5.43-4.85-5.02,7.29-9.42,14.82-13.21,22.61-3.39,6.57-6.31,13.82-8.77,21.75-2.46,7.94-3.44,15.47-2.94,22.6,.37,5.29,1.5,9.53,3.4,12.73,1.9,3.19,4.22,5.57,6.98,7.12,2.75,1.55,5.57,2.45,8.47,2.7,2.9,.25,5.65,.17,8.27-.23,4.99-.77,9.91-3.39,14.77-7.86,4.85-4.46,9.67-10.38,14.45-17.75,4.77-7.36,9.51-16.11,14.22-26.25,.75-1.63,1.51-3.32,2.26-5,.23,3.74,.64,7.4,1.33,10.97,.67,3.52,1.56,7,2.67,10.43,6.06,19.14,19.59,26.7,40.59,22.67,24.54-4.7,44.05-23,58.56-54.89,14.5-31.89,19.35-60.37,14.55-85.44Zm-338.74,92.1c4.51-4.3,9.85-6.92,16.03-7.88,4.28-.66,6.36,.76,6.24,4.27-.12,3.51-1.55,7.16-4.29,10.95-2.74,3.8-6.56,6.71-11.47,8.74-4.9,2.04-10.12,1.27-15.65-2.3,1.58-4.89,4.62-9.49,9.13-13.79Zm257.75-14.56c-.45-2.35-.4-5.4,.16-9.15,1.36-6.57,3.5-12,6.42-16.28,2.92-4.28,5.67-6.93,8.24-7.96l1.73-.33c1.56,.31,2.57,1.71,3.05,4.2,.13,.66,.23,1.4,.31,2.22,.23,3.91-.25,8.26-1.42,13.04-1.18,4.79-2.74,8.74-4.69,11.85-3.37,4.68-6.25,7.24-8.62,7.69-.94,.18-1.8,0-2.57-.53-1.31-.96-2.17-2.54-2.6-4.74Z"/><path class="cls-5" d="M352.93,122.29c1.75,.17,2.93-.31,3.52-1.46,.59-1.15,1.89-2.95,3.87-5.42,1.98-2.46,5.31-5.64,9.99-9.52,4.67-3.89,11.96-8.48,21.87-13.78,2.01-1.25,2.96-2.91,2.83-4.98-.13-2.06-1.02-4.15-2.67-6.25-1.66-2.1-3.79-4-6.41-5.71-2.62-1.71-5.18-2.69-7.68-2.94-3.01-.3-6.58,.74-10.71,3.11-4.14,2.37-8.14,5.36-11.99,8.96-3.86,3.61-7.29,7.38-10.32,11.3-3.02,3.93-4.8,7.32-5.32,10.17-1.05,5.7-.09,9.78,2.9,12.25,2.99,2.47,6.36,3.89,10.12,4.27Z"/></g><g><path class="cls-6" d="M559.21,147.9c2.38-.45,5.25-3.01,8.62-7.69,1.95-3.1,3.51-7.06,4.69-11.85,1.17-4.78,1.65-9.13,1.42-13.04-.08-.82-.18-1.56-.31-2.22-.48-2.49-1.49-3.89-3.05-4.2l-1.73,.33c-2.57,1.02-5.32,3.68-8.24,7.96-2.92,4.28-5.06,9.71-6.42,16.28-.55,3.75-.61,6.8-.16,9.15,.42,2.2,1.29,3.78,2.6,4.74,.78,.54,1.63,.71,2.57,.53Z"/><path class="cls-6" d="M302.81,173.27c4.9-2.03,8.72-4.95,11.47-8.74,2.74-3.79,4.17-7.44,4.29-10.95,.12-3.51-1.96-4.93-6.24-4.27-6.18,.95-11.52,3.58-16.03,7.88-4.51,4.3-7.55,8.9-9.13,13.79,5.53,3.57,10.75,4.33,15.65,2.3Z"/><g><path class="cls-6" d="M559.21,147.9c2.38-.45,5.25-3.01,8.62-7.69,1.95-3.1,3.51-7.06,4.69-11.85,1.17-4.78,1.65-9.13,1.42-13.04-.08-.82-.18-1.56-.31-2.22-.48-2.49-1.49-3.89-3.05-4.2l-1.73,.33c-2.57,1.02-5.32,3.68-8.24,7.96-2.92,4.28-5.06,9.71-6.42,16.28-.55,3.75-.61,6.8-.16,9.15,.42,2.2,1.29,3.78,2.6,4.74,.78,.54,1.63,.71,2.57,.53Z"/><path class="cls-6" d="M302.81,173.27c4.9-2.03,8.72-4.95,11.47-8.74,2.74-3.79,4.17-7.44,4.29-10.95,.12-3.51-1.96-4.93-6.24-4.27-6.18,.95-11.52,3.58-16.03,7.88-4.51,4.3-7.55,8.9-9.13,13.79,5.53,3.57,10.75,4.33,15.65,2.3Z"/><path class="cls-1" d="M635.03,65.09l-.11-.55c-6.38-29.79-27.51-41.25-63.37-34.38-5.35,1.02-11.01,2.46-17.02,4.29-5.2,1.38-10.11,2.51-14.73,3.4-29.01,5.56-45.88,1.3-50.59-12.77-6.47,3.3-10.07,7.92-10.81,13.87-.72,5.95-.79,10.52-.19,13.67,.96,4.98,3.18,9.72,6.66,14.22,5.74,7.34,15.66,10.84,29.73,10.49,3.07-.35,6.17-.84,9.27-1.43,11.26-2.16,22.27-5.59,33.03-10.32,10.06-4.13,19.2-6.99,27.42-8.56l.87-.17c8.38-1.53,15.06,.53,20.04,6.19,2.89,4.16,4.9,9.21,6.05,15.14,1.32,6.9,1.44,14.97,.37,24.22-2.02,17.18-6.84,33.59-14.47,49.23-7.63,15.64-16.46,24.41-26.49,26.34l-2.16,.41c-2.58,.19-4.93-.51-7.04-2.13-2.11-1.61-3.64-3.57-4.6-5.9,10.76-2.44,19.51-9.46,26.26-21.04,6.76-11.6,9.65-24.03,8.68-37.29-.14-1.12-.32-2.23-.52-3.32-1.83-9.53-5.81-16.25-11.95-20.17-6.88-4.31-13.61-5.83-20.18-4.57-17.61,3.38-29.54,14.91-35.78,34.61-1.14,3.59-2.07,7.1-2.9,10.57-.17,.26-.42,.41-.57,.71-1.28,2.29-3.15,5.72-5.59,10.28-2.45,4.56-5.31,9.13-8.6,13.71-3.29,4.58-6.78,8.72-10.49,12.43-3.71,3.71-7.23,5.82-10.55,6.33-4.04,.62-5.69-1.56-4.96-6.56,.74-4.99,2.79-10.83,6.18-17.52,3.38-6.68,7.49-13.19,12.34-19.51,4.84-6.33,9.47-10.64,13.88-12.95,.7-.34,1.09-1.62,1.18-3.84,.08-2.22-.62-4.55-2.11-7-1.49-2.44-3.97-4.44-7.44-6-3.47-1.56-8.41-1.84-14.83-.85-6.9,1.06-14.22,5.33-21.99,12.81-7.77,7.47-15.07,15.69-21.9,24.65,2.39-3.62,4.89-7.38,7.51-11.27,2.62-3.89,5.58-7.95,8.89-12.18,.43-.76,.37-1.63-.18-2.59-.55-.96-1.75-1.82-3.6-2.58-1.85-.76-4.47-1.28-7.86-1.58-3.39-.29-7.69-.03-12.92,.77-3.8,.59-7.89,2.38-12.24,5.37-4.36,3-8.73,6.7-13.11,11.09-4.38,4.4-8.73,9.25-13.05,14.57-4.32,5.32-8.23,10.45-11.73,15.41,3.15-6.53,6.46-12.44,9.94-17.75,3.47-5.3,6.8-9.36,9.97-12.17,1.58-1.41,2.09-2.76,1.52-4.07-.57-1.31-1.79-2.4-3.65-3.27-1.86-.87-4.25-1.49-7.15-1.86-2.91-.36-5.91-.31-9,.17-4.04,.62-8.24,3.25-12.61,7.87-4.36,4.63-8.65,10.4-12.85,17.33-4.2,6.93-8.18,14.57-11.93,22.94-.78,1.75-1.44,3.45-2.18,5.17-3.35,4.89-7.17,9.85-11.56,14.9-4.67,5.37-9.8,10.29-15.37,14.75-5.58,4.47-11.22,7.13-16.92,8.01-7.37,1.14-12.6,.11-15.71-3.08-3.1-3.19-4.72-7.39-4.83-12.58,1.31,1.66,3.26,2.93,5.85,3.81,2.58,.88,6.25,.95,11,.22,8.32-1.28,15.57-4.02,21.77-8.24,6.19-4.21,11.08-9.03,14.67-14.47,3.59-5.44,5.84-11.01,6.77-16.74,.92-5.72,.51-10.89-1.25-15.5-1.76-4.61-4.89-8.19-9.39-10.76-4.5-2.56-10.55-3.25-18.16-2.08-10.94,1.69-20.96,6.09-30.07,13.21-9.12,7.12-16.76,15.52-22.94,25.22-5.24,8.23-9.08,16.72-11.69,25.46-1.12,1.8-2.25,3.6-3.47,5.38-2.95,4.29-5.87,8.05-8.77,11.29-2.9,3.24-5.42,5.02-7.56,5.35-2.38,.37-3.34-.53-2.89-2.7,.45-2.17,1.38-5.23,2.79-9.18,1.4-3.95,2.83-8.54,4.27-13.79,1.44-5.24,1.96-10.75,1.56-16.52-.4-5.77-2.15-10.29-5.26-13.55-3.11-3.25-6.41-5.78-9.89-7.58-4.22-1.92-8.87-3.18-13.95-3.8-.27-3.93-1.61-6.75-4.01-8.48-2.41-1.73-4.94-2.86-7.62-3.38-3.15-.44-6.76-.47-10.81-.08-.57,9.15-2.82,19.09-6.77,29.81-3.94,10.72-8.46,21.01-13.54,30.86-5.08,9.85-10.17,18.72-15.28,26.59-.47,.72-.88,1.34-1.33,2.02-2.14,2.66-4.36,5.22-6.66,7.68-9.08,9.74-19.24,16.14-30.2,19-7.94,2.08-14.16,.81-19.01-3.86-5.22-5.02-9.14-12.46-11.66-22.11-2.95-11.31-4.16-25-3.62-40.67,.55-14.65,2.7-30.38,6.35-46.7,5.23-21.56,12.96-40.5,23-56.28,3.75-5.89,7.34-10.89,10.75-14.99,.03-.04,.07-.06,.1-.1,.09-.12,.21-.25,.31-.37,.48-.57,.95-1.09,1.42-1.62,3.91-3.88,10.8-7.14,15.54-4.4,5.23,3.03,5.32,11.47,4.07,17.44-1.09,3.96-2.4,8.1-4.14,12.63-4.88,12.68-10.66,24.41-17.18,34.85-7.77,12.47-12.7,16.35-15.46,17.41-1.16,.44-1.96,1.52-2.06,2.76s.53,2.43,1.61,3.05c5.4,3.11,11.39,4.63,17.96,4.52,6.28-.09,11.24-.64,15.16-1.66,4.85-1.27,9.71-3.32,14.49-6.12,8.56-5.22,15.11-13.86,19.5-25.74,3.47-9.9,5.37-19.75,5.66-29.3,.26-9.48-.51-17.75-2.3-24.58-1.91-7.33-5.89-14.29-11.86-20.68-5.33-5.65-12.28-9.96-20.64-12.8-8.48-2.89-18.47-2.87-29.7,.06-14.33,3.74-27.23,10.78-38.34,20.93-10.99,10.05-20.39,22.22-27.95,36.17-7.54,13.92-13.46,29.05-17.59,44.97-4.13,15.92-6.55,32.06-7.2,47.97-.66,16.19-.1,28.13,1.71,36.49,1.75,8.1,2.88,13.12,3.39,15.06,3.05,11.69,7.63,22.02,13.58,30.67,7.01,10.63,16.2,18.26,27.31,22.7,5.92,2.35,12.43,3.53,19.49,3.53,6.24,0,12.9-.92,19.96-2.76,16.78-4.38,32.85-18.03,46.48-34.72,1.75-1.98,3.53-4.13,5.38-6.67,1.52-2.09,3.06-4.33,4.59-6.69,6.07-8.85,11.46-18.04,15.89-26.85,4.31-7.57,7.05-12.91,9.08-18.2,3.16-6.36,6.36-13.01,9.62-20.03,2.36-.59,4.61-1.06,6.75-1.39,1.66-.26,3.23-.2,4.69,.15,1.47,.36,2.25,1.22,2.34,2.6,.1,1.38-1.06,4.64-3.47,9.78-2.41,5.14-5.13,11.02-8.15,17.65-3.03,6.63-5.69,13.32-7.98,20.06-2.3,6.75-3.29,12.42-2.97,17.02,.16,2.3,.63,4.84,1.43,7.63,.79,2.79,2.11,5.31,3.95,7.59,1.83,2.28,4.42,4.03,7.75,5.26,3.33,1.23,7.72,1.42,13.19,.58,6.42-.99,12.63-4.94,18.64-11.87,6.01-6.92,11.59-14.81,16.74-23.68,.35-.6,.64-1.22,.98-1.82,.09,.37,.13,.76,.23,1.13,2.38,8.38,7.57,14.81,15.56,19.29,7.99,4.48,19.36,5.58,34.1,3.31,8.56-1.32,16.29-4.95,23.21-10.9,3.94-3.39,7.6-7.23,11.02-11.41,0,.57-.02,1.18,.02,1.69,.14,2.07,1.41,3.85,3.79,5.34,2.39,1.5,5.23,2.63,8.52,3.39,3.3,.77,6.57,1.25,9.83,1.45,3.26,.2,5.83,.15,7.74-.15,4.04-.62,5.96-2.31,5.77-5.07-.27-.42-.43-1.09-.5-2.02-.29-4.14,.56-9.27,2.54-15.39,1.98-6.11,4.66-12.51,8.04-19.2,3.38-6.68,7.06-13.29,11.06-19.84,3.99-6.54,7.84-12.42,11.57-17.65,3.72-5.22,7.03-9.51,9.92-12.86,2.89-3.35,4.81-5.1,5.76-5.25-3.44,5.88-6.98,12.01-10.62,18.38-3.65,6.38-6.86,12.86-9.64,19.45-2.79,6.59-5.05,12.98-6.78,19.18-1.73,6.2-2.42,11.94-2.05,17.23,.22,3.22,1.79,5.89,4.7,7.99,2.9,2.11,6.19,3.64,9.86,4.58,3.67,.95,7.23,1.21,10.68,.79,3.45-.41,5.85-1.42,7.18-3.02,.67-.8,1.15-2.5,1.45-5.11l-.17-2.41c.2-3.98,1.37-8.87,3.49-14.66,2.12-5.79,4.77-11.83,7.93-18.14,3.17-6.3,6.7-12.54,10.6-18.72,3.9-6.18,7.53-11.74,10.92-16.68,3.38-4.93,6.41-8.95,9.08-12.03,2.67-3.08,4.48-4.7,5.43-4.85-5.02,7.29-9.42,14.82-13.21,22.61-3.39,6.57-6.31,13.82-8.77,21.75-2.46,7.94-3.44,15.47-2.94,22.6,.37,5.29,1.5,9.53,3.4,12.73,1.9,3.19,4.22,5.57,6.98,7.12,2.75,1.55,5.57,2.45,8.47,2.7,2.9,.25,5.65,.17,8.27-.23,4.99-.77,9.91-3.39,14.77-7.86,4.85-4.46,9.67-10.38,14.45-17.75,4.77-7.36,9.51-16.11,14.22-26.25,.75-1.63,1.51-3.32,2.26-5,.23,3.74,.64,7.4,1.33,10.97,.67,3.52,1.56,7,2.67,10.43,6.06,19.14,19.59,26.7,40.59,22.67,24.54-4.7,44.05-23,58.56-54.89,14.5-31.89,19.35-60.37,14.55-85.44Zm-338.74,92.1c4.51-4.3,9.85-6.92,16.03-7.88,4.28-.66,6.36,.76,6.24,4.27-.12,3.51-1.55,7.16-4.29,10.95-2.74,3.8-6.56,6.71-11.47,8.74-4.9,2.04-10.12,1.27-15.65-2.3,1.58-4.89,4.62-9.49,9.13-13.79Zm257.75-14.56c-.45-2.35-.4-5.4,.16-9.15,1.36-6.57,3.5-12,6.42-16.28,2.92-4.28,5.67-6.93,8.24-7.96l1.73-.33c1.56,.31,2.57,1.71,3.05,4.2,.13,.66,.23,1.4,.31,2.22,.23,3.91-.25,8.26-1.42,13.04-1.18,4.79-2.74,8.74-4.69,11.85-3.37,4.68-6.25,7.24-8.62,7.69-.94,.18-1.8,0-2.57-.53-1.31-.96-2.17-2.54-2.6-4.74Z"/></g><path class="cls-1" d="M353.33,118.26c1.75,.17,2.93-.31,3.52-1.46,.59-1.15,1.89-2.95,3.87-5.42,1.98-2.46,5.31-5.64,9.99-9.52,4.67-3.89,11.96-8.48,21.87-13.78,2.01-1.25,2.96-2.91,2.83-4.98-.13-2.06-1.02-4.15-2.67-6.25-1.66-2.1-3.79-4-6.41-5.71-2.62-1.71-5.18-2.69-7.68-2.94-3.01-.3-6.58,.74-10.71,3.11-4.14,2.37-8.14,5.36-11.99,8.96-3.86,3.61-7.29,7.38-10.32,11.3-3.02,3.93-4.8,7.32-5.32,10.17-1.05,5.7-.09,9.78,2.9,12.25,2.99,2.47,6.36,3.89,10.12,4.27Z"/></g></g></svg>