<?xml version="1.0" encoding="UTF-8"?><svg id="Layer_2" xmlns="http://www.w3.org/2000/svg" viewBox="0 0 231.32 98.21"><defs><style>.cls-1{fill:#fff;}.cls-2{fill:none;}</style></defs><path class="cls-2" d="M197.45,73.28c.86-.01,2.03-.73,3.5-2.17,.87-.97,1.66-2.26,2.37-3.86,.7-1.6,1.14-3.1,1.3-4.48,.02-.29,.03-.56,.03-.8-.01-.9-.28-1.46-.81-1.66h-.63c-.96,.21-2.09,.97-3.38,2.29s-2.37,3.09-3.25,5.31c-.43,1.28-.63,2.35-.62,3.2,.01,.8,.22,1.4,.62,1.82,.24,.24,.53,.35,.87,.34Z"/><path class="cls-2" d="M106.01,66.42c1.84-.41,3.36-1.2,4.56-2.36,1.19-1.16,1.92-2.35,2.18-3.57,.26-1.22-.38-1.85-1.93-1.88-2.23-.05-4.26,.55-6.1,1.78-1.85,1.23-3.19,2.65-4.05,4.27,1.72,1.59,3.5,2.18,5.35,1.77Z"/><g><path class="cls-2" d="M197.45,73.28c.86-.01,2.03-.73,3.5-2.17,.87-.97,1.66-2.26,2.37-3.86,.7-1.6,1.14-3.1,1.3-4.48,.02-.29,.03-.56,.03-.8-.01-.9-.28-1.46-.81-1.66h-.63c-.96,.21-2.09,.97-3.38,2.29s-2.37,3.09-3.25,5.31c-.43,1.28-.63,2.35-.62,3.2,.01,.8,.22,1.4,.62,1.82,.24,.24,.53,.35,.87,.34Z"/><path class="cls-2" d="M106.01,66.42c1.84-.41,3.36-1.2,4.56-2.36,1.19-1.16,1.92-2.35,2.18-3.57,.26-1.22-.38-1.85-1.93-1.88-2.23-.05-4.26,.55-6.1,1.78-1.85,1.23-3.19,2.65-4.05,4.27,1.72,1.59,3.5,2.18,5.35,1.77Z"/><path class="cls-1" d="M229.13,48.91v-.2c-.41-10.84-7.11-16.15-20.11-15.95-1.94,.03-4.01,.18-6.23,.46-1.91,.16-3.7,.26-5.37,.29-10.51,.16-16.16-2.36-16.95-7.59-2.47,.76-4.02,2.16-4.64,4.2-.62,2.04-.92,3.64-.91,4.78,.03,1.8,.52,3.6,1.46,5.4,1.56,2.93,4.82,4.76,9.78,5.51,1.1,.06,2.21,.09,3.34,.07,4.08-.06,8.15-.59,12.22-1.59,3.78-.83,7.16-1.27,10.14-1.32h.32c3.03-.02,5.25,1.11,6.65,3.4,.76,1.64,1.15,3.53,1.19,5.68,.04,2.5-.41,5.34-1.36,8.51-1.76,5.9-4.46,11.35-8.1,16.37s-7.27,7.55-10.91,7.6h-.78c-.92-.08-1.7-.47-2.34-1.17-.64-.69-1.06-1.48-1.25-2.35,3.92-.19,7.42-2.12,10.5-5.76,3.08-3.65,4.86-7.83,5.34-12.54,.02-.4,.03-.8,.02-1.2-.06-3.45-1.04-6.05-2.95-7.8-2.15-1.93-4.41-2.88-6.79-2.84-6.38,.1-11.27,3.41-14.67,9.94-.62,1.19-1.16,2.36-1.67,3.53-.08,.08-.17,.12-.24,.21-.59,.72-1.46,1.81-2.59,3.26-1.14,1.45-2.42,2.88-3.86,4.28-1.43,1.4-2.91,2.64-4.44,3.71-1.53,1.07-2.89,1.6-4.09,1.57-1.46-.03-1.9-.9-1.33-2.6,.56-1.71,1.64-3.63,3.24-5.76,1.59-2.13,3.44-4.16,5.53-6.08,2.09-1.92,3.97-3.15,5.66-3.69,.27-.07,.48-.5,.65-1.27,.17-.77,.06-1.63-.31-2.58-.37-.95-1.12-1.8-2.24-2.56-1.12-.76-2.84-1.16-5.15-1.21-2.48-.05-5.31,.99-8.5,3.14-3.18,2.14-6.25,4.58-9.19,7.29,1.06-1.12,2.17-2.29,3.32-3.49,1.16-1.2,2.44-2.44,3.86-3.72,.2-.24,.23-.55,.1-.92-.13-.37-.5-.75-1.1-1.13-.6-.38-1.49-.72-2.66-1.04-1.17-.31-2.69-.48-4.58-.52-1.37-.03-2.91,.35-4.62,1.13-1.71,.78-3.47,1.81-5.28,3.08-1.81,1.27-3.63,2.71-5.47,4.3-1.84,1.6-3.53,3.16-5.06,4.68,1.51-2.09,3.03-3.97,4.58-5.61,1.54-1.64,2.96-2.86,4.24-3.65,.64-.4,.9-.84,.78-1.33-.12-.49-.48-.95-1.08-1.37-.6-.42-1.4-.78-2.39-1.09-1-.31-2.05-.47-3.16-.49-1.46-.03-3.09,.63-4.9,1.98-1.81,1.35-3.67,3.11-5.57,5.28-1.9,2.17-3.76,4.61-5.59,7.31-.38,.56-.72,1.12-1.08,1.68-1.47,1.51-3.12,3.01-4.97,4.51-1.97,1.6-4.07,3-6.3,4.23-2.23,1.22-4.37,1.81-6.42,1.77-2.65-.05-4.43-.74-5.32-2.05-.89-1.31-1.2-2.88-.92-4.71,.36,.66,.96,1.23,1.82,1.69,.85,.47,2.13,.72,3.84,.75,2.99,.06,5.71-.45,8.14-1.55,2.43-1.09,4.44-2.49,6.03-4.17,1.59-1.68,2.73-3.5,3.4-5.45,.67-1.95,.85-3.79,.51-5.51-.33-1.72-1.21-3.17-2.63-4.35-1.42-1.17-3.5-1.79-6.24-1.85-3.94-.08-7.72,.85-11.35,2.78-3.63,1.93-6.83,4.41-9.59,7.43-2.34,2.56-4.21,5.3-5.66,8.21-.5,.56-1.01,1.12-1.55,1.67-1.3,1.32-2.55,2.46-3.77,3.42-1.22,.96-2.21,1.43-2.98,1.41-.86-.02-1.14-.39-.85-1.13,.29-.73,.8-1.75,1.54-3.05,.73-1.3,1.52-2.82,2.34-4.57,.83-1.75,1.35-3.65,1.56-5.7,.22-2.05-.12-3.74-1.01-5.07-.89-1.33-1.89-2.42-3-3.27-1.36-.93-2.91-1.66-4.66-2.19,.15-1.39-.15-2.46-.88-3.22-.74-.75-1.56-1.3-2.46-1.65-1.08-.35-2.34-.58-3.79-.69-.76,3.17-2.16,6.52-4.2,10.04-2.04,3.52-4.26,6.84-6.64,9.99-2.39,3.14-4.72,5.94-6.99,8.38-.21,.22-.39,.41-.59,.63-.91,.8-1.85,1.56-2.81,2.28-3.78,2.86-7.74,4.47-11.76,4.8-2.91,.24-5.01-.59-6.43-2.52-1.52-2.08-2.44-4.93-2.73-8.47-.34-4.15,.08-9.02,1.23-14.48,1.09-5.1,2.81-10.48,5.1-15.98,3.16-7.24,7.03-13.4,11.52-18.32,1.67-1.83,3.24-3.36,4.69-4.59,.01-.01,.03-.02,.04-.03,.04-.04,.09-.07,.13-.11,.2-.17,.4-.32,.6-.48,1.61-1.12,4.23-1.84,5.72-.59,1.65,1.38,1.16,4.35,.35,6.37-.63,1.32-1.34,2.69-2.23,4.17-2.49,4.15-5.24,7.9-8.16,11.16-3.49,3.89-5.46,4.95-6.49,5.15-.44,.08-.78,.41-.89,.84s.04,.88,.38,1.17c1.7,1.42,3.71,2.32,6.02,2.69,2.21,.35,3.98,.47,5.42,.35,1.78-.15,3.61-.57,5.46-1.26,3.32-1.31,6.15-3.93,8.42-7.82,1.83-3.26,3.1-6.59,3.79-9.92,.67-3.31,.91-6.26,.71-8.76-.22-2.69-1.19-5.37-2.88-7.98-1.52-2.31-3.69-4.25-6.45-5.76-2.8-1.53-6.3-2.14-10.41-1.8-5.25,.43-10.21,2.11-14.73,4.98-4.47,2.85-8.52,6.54-12.02,10.96-3.5,4.42-6.5,9.36-8.93,14.69s-4.27,10.84-5.47,16.38c-1.23,5.63-1.76,9.85-1.64,12.9,.12,2.95,.2,4.78,.26,5.49,.35,4.28,1.32,8.19,2.88,11.59,1.8,4.16,4.56,7.4,8.18,9.64,1.93,1.19,4.14,2,6.62,2.44,2.19,.38,4.58,.47,7.17,.26,6.15-.5,12.62-4.3,18.43-9.32,.73-.59,1.49-1.23,2.3-2.01,.66-.64,1.34-1.33,2.02-2.06,2.67-2.73,5.13-5.62,7.22-8.43,1.98-2.39,3.26-4.09,4.3-5.82,1.5-2.04,3.03-4.17,4.6-6.43,.86-.06,1.68-.09,2.45-.07,.6,.01,1.14,.13,1.64,.34,.49,.22,.71,.57,.66,1.06-.05,.49-.66,1.56-1.82,3.21-1.16,1.65-2.47,3.55-3.94,5.69-1.47,2.14-2.81,4.32-4.03,6.54-1.22,2.23-1.92,4.15-2.09,5.78-.09,.82-.08,1.74,.03,2.76,.11,1.03,.41,1.99,.92,2.9,.5,.91,1.3,1.68,2.39,2.32,1.09,.64,2.62,.97,4.59,1.01,2.31,.05,4.73-.96,7.26-3.02,2.53-2.06,4.97-4.48,7.32-7.27,.16-.19,.3-.39,.46-.58,.01,.14,0,.28,.01,.41,.32,3.08,1.74,5.66,4.27,7.72,2.53,2.06,6.44,3.15,11.75,3.26,3.08,.06,6.01-.74,8.81-2.4,1.59-.95,3.11-2.07,4.56-3.32-.03,.2-.08,.41-.1,.59-.08,.73,.26,1.44,1,2.11,.75,.67,1.67,1.24,2.78,1.71,1.11,.47,2.23,.84,3.36,1.11s2.04,.41,2.72,.42c1.45,.03,2.23-.44,2.34-1.42-.07-.16-.09-.41-.05-.74,.15-1.47,.77-3.21,1.84-5.24,1.07-2.02,2.4-4.1,4-6.24,1.59-2.13,3.29-4.23,5.1-6.27,1.8-2.05,3.51-3.87,5.14-5.48,1.63-1.6,3.05-2.9,4.27-3.9,1.22-1,2-1.49,2.34-1.49-1.57,1.85-3.18,3.78-4.85,5.79-1.67,2.01-3.19,4.09-4.58,6.22-1.38,2.14-2.57,4.24-3.56,6.31-.99,2.07-1.58,4.04-1.78,5.91-.12,1.14,.26,2.17,1.15,3.09,.89,.92,1.95,1.66,3.18,2.21,1.23,.56,2.46,.87,3.7,.93,1.23,.07,2.14-.14,2.7-.62,.28-.24,.56-.81,.82-1.7l.09-.86c.32-1.38,1.02-3.03,2.12-4.93,1.1-1.9,2.4-3.86,3.9-5.87,1.5-2.01,3.12-3.98,4.87-5.91,1.75-1.93,3.36-3.65,4.85-5.18,1.49-1.52,2.8-2.74,3.92-3.66,1.13-.92,1.86-1.37,2.2-1.37-2.21,2.25-4.22,4.62-6.02,7.11-1.59,2.1-3.06,4.46-4.41,7.09-1.35,2.63-2.16,5.21-2.42,7.74-.2,1.88-.06,3.43,.41,4.67,.47,1.24,1.14,2.21,2.01,2.92,.87,.71,1.8,1.2,2.8,1.47,1,.27,1.97,.41,2.91,.43,1.8,.04,3.68-.58,5.66-1.85,1.98-1.27,4.03-3.05,6.16-5.33,2.13-2.29,4.33-5.06,6.6-8.33,.36-.52,.73-1.07,1.1-1.61-.15,1.32-.23,2.63-.21,3.93,.02,1.28,.12,2.55,.29,3.82,.95,7.08,5.23,10.56,12.84,10.44,8.89-.14,16.86-5.36,23.9-15.64,7.04-10.29,10.5-19.97,10.35-29.06Zm-124.41,11.46c1.84-1.23,3.88-1.82,6.1-1.78,1.54,.03,2.18,.66,1.93,1.88-.26,1.22-.98,2.41-2.18,3.57-1.2,1.16-2.71,1.95-4.56,2.36-1.84,.41-3.63-.18-5.35-1.77,.86-1.62,2.2-3.04,4.05-4.27Zm91.26,10.74c-.01-.85,.19-1.92,.62-3.2,.88-2.22,1.96-3.99,3.25-5.31s2.41-2.08,3.38-2.28h.63c.53,.2,.8,.75,.81,1.65,0,.24,0,.5-.03,.8-.16,1.39-.6,2.88-1.3,4.48-.71,1.61-1.5,2.9-2.37,3.86-1.47,1.43-2.64,2.15-3.5,2.17-.34,0-.63-.11-.87-.34-.4-.42-.61-1.03-.62-1.82Z"/></g><path class="cls-1" d="M127.1,50.24c.6,.17,1.05,.07,1.33-.3,.28-.37,.84-.92,1.69-1.66,.85-.74,2.21-1.65,4.09-2.72,1.88-1.08,4.71-2.24,8.51-3.49,.78-.31,1.22-.84,1.3-1.57,.08-.73-.1-1.52-.55-2.35-.45-.84-1.08-1.64-1.89-2.4-.81-.76-1.65-1.26-2.51-1.5-1.04-.29-2.35-.14-3.95,.43-1.6,.58-3.18,1.38-4.75,2.4-1.57,1.03-3.01,2.14-4.31,3.33-1.3,1.19-2.13,2.27-2.49,3.24-.72,1.93-.63,3.42,.26,4.47,.9,1.05,1.99,1.76,3.28,2.12Z"/></svg>