<?xml version="1.0" encoding="UTF-8"?><svg id="Layer_1" xmlns="http://www.w3.org/2000/svg" viewBox="0 0 443 486"><defs><style>.cls-1{fill:#fdfeff;}</style></defs><path class="cls-1" d="M419.83,287.27c-7.55-23.91-32.87-43.45-57.92-44.95-4.27-.26-5.15-.93-3.5-5.37,3.59-9.68,7.34-19.5,9.18-29.6,3.49-19.1-2.01-35.68-17.18-48.5-9.25-7.82-20.15-12.52-31.36-16.66-2.75-1.01-5.41-2.26-8.67-3.64,1.99-2.43,3.29-3.97,4.54-5.54,12.33-15.58,10.84-30.62-4.49-43.24-10.72-8.83-23.32-13.86-36.65-17.14-12.37-3.04-25.06-5.1-36.2-11.83-12.2-7.37-13.42-17.11-3.77-27.76,10.25-11.31,23.25-18.64,36.46-25.7,1.76-.94,3.52-1.88,5.27-2.81l-.58-1.27c-4.63,.86-9.37,1.36-13.89,2.64-25.5,7.23-51.13,14.06-76.34,22.2-20.52,6.62-39.55,16.51-54.76,32.44-20.05,21.01-20.45,52.51-.83,71.63,2.4,2.34,5.17,4.3,8.34,6.9-2.4,1.63-4.39,3.11-6.5,4.39-6.25,3.78-12.69,7.27-18.81,11.24-12.27,7.98-23.13,17.49-29.72,30.89-8.36,16.98-6.63,33.98,.69,50.81,2.31,5.3,2.11,5.25-3.67,5.95-6.2,.75-12.69,1.31-18.39,3.6-23.76,9.54-37.15,27.53-39.71,52.9-1.66,16.35,5.87,30.54,20.26,37.39,8.93,4.25,18.38,4.83,27.94,4.27,4.11-.24,5.95,1.48,6.83,5.04,2.59,10.39,5.24,20.76,7.74,31.18,5.72,23.81,11.38,47.63,17.02,71.46,1.52,6.43,5.28,10.9,11.29,13.57,2.64,1.17,5.17,2.63,7.87,3.63,34.27,12.72,70.07,16.56,106.24,17.33,13.37,.29,26.84-.94,40.17-2.33,24.48-2.55,48.29-8.11,70.74-18.49,2.09-.97,4.19-3.53,4.85-5.77,10.04-34.09,19.76-68.26,29.87-102.33,.72-2.44,3.47-5.01,5.91-6.08,11.77-5.16,23.08-10.9,32.02-20.42,10.79-11.49,14.51-24.91,9.74-40.03Zm-124.18,21.23c-3.05,22.77-8.69,42.11-16.92,58.01-12.3,24.37-28.84,39.73-49.61,46.04-11.64,3.54-21.81,3.77-30.53,.69-8.72-3.08-15.96-8.63-21.73-16.65-5-6.68-8.9-14.61-11.69-23.78-.47-1.55-1.54-5.56-3.22-12.05-1.68-6.49-2.51-16.16-2.5-29.02,.01-12.85,1.43-25.78,4.25-38.76,2.82-12.98,7.04-25.19,12.65-36.61,5.61-11.42,12.64-21.31,21.09-29.68,8.44-8.36,18.27-14.24,29.46-17.65,8.59-2.61,16.15-2.95,22.68-1.01,6.53,1.93,11.91,4.97,16.14,9.12,4.75,4.71,7.97,9.82,9.65,15.35,1.61,5.3,2.46,11.71,2.55,19.23,.08,7.51-1.09,15.27-3.53,23.25-3.01,9.24-7.67,15.97-13.99,20.18-3.58,2.3-7.22,4.01-10.91,5.13-2.94,.89-6.83,1.48-11.68,1.74-4.85,.27-9.32-.66-13.41-2.8,3.78-1.63,8.21-6.9,13.28-15.8,5.07-8.91,9.43-18.71,13.06-29.41,.39-1.14,.74-2.26,1.09-3.36,0-.02,0-.04,0-.05,2.06-6.15,3.1-18.15-3.56-22-5.57-3.23-14.78,2.1-18.81,6.85-2.16,3.01-4.36,6.41-6.62,10.3-7.84,13.49-13.57,29.29-17.21,47.41-2.5,13.67-3.73,26.6-3.71,38.78,.07,13.14,1.54,24.39,4.4,33.78,2.52,8.28,6.18,14.56,10.98,18.83,4.8,4.27,10.85,5.3,18.14,3.08,9.35-2.84,17.76-8.6,25.22-17.27,7.46-8.66,13.71-18.5,18.73-29.5,5.03-11,8.74-21.76,11.13-32.26,.61-3.08,1.67-4.85,3.2-5.32,.93-.04,1.55,.43,1.86,1.42,.27,.88,.3,2.14,.08,3.78Z"/></svg>