<?xml version="1.0" encoding="UTF-8"?><svg id="Layer_1" xmlns="http://www.w3.org/2000/svg" viewBox="0 0 193.5 264.5"><defs><style>.cls-1{fill:#fff;}.cls-2{fill:#ff1e7c;}</style></defs><g><path class="cls-1" d="M156.85,123.69c-.32-.87-.9-1.26-1.73-1.17-1.34,.49-2.19,2.12-2.57,4.9-1.58,9.47-4.31,19.24-8.21,29.3-3.9,10.06-8.94,19.14-15.13,27.24-6.19,8.11-13.37,13.67-21.54,16.69-6.37,2.35-11.81,1.76-16.31-1.79-4.5-3.55-8.09-8.95-10.76-16.19-3.04-8.21-4.93-18.15-5.68-29.84-.66-10.84-.24-22.41,1.27-34.71,2.28-16.32,6.56-30.69,12.83-43.11,1.81-3.58,3.59-6.72,5.35-9.52,3.34-4.44,11.26-9.66,16.39-7.09,6.13,3.08,5.83,13.82,4.33,19.4,0,.01,0,.03,0,.05-.25,1-.5,2.01-.79,3.04-2.67,9.72-6.04,18.67-10.08,26.86-4.05,8.19-7.71,13.12-10.99,14.76,3.75,1.69,7.78,2.28,12.09,1.79,4.3-.49,7.74-1.21,10.3-2.16,3.23-1.19,6.38-2.9,9.45-5.14,5.41-4.08,9.2-10.32,11.4-18.7,1.75-7.24,2.39-14.2,1.92-20.88-.47-6.68-1.57-12.35-3.28-16.98-1.78-4.83-4.92-9.21-9.4-13.16-3.98-3.47-8.94-5.89-14.85-7.27-5.91-1.38-12.63-.68-20.14,2.09-9.79,3.62-18.23,9.37-25.3,17.26-7.08,7.89-12.82,17.07-17.22,27.53-4.4,10.46-7.51,21.55-9.34,33.26-1.83,11.71-2.41,23.29-1.75,34.73,.67,11.44,1.91,20.01,3.75,25.7,1.83,5.69,3,9.21,3.5,10.56,2.96,8.01,6.85,14.87,11.65,20.55,5.55,6.84,12.29,11.4,20.21,13.69,7.92,2.28,16.97,1.55,27.14-2.21,18.16-6.71,32.07-21.25,41.75-43.59,6.49-14.59,10.5-32.09,12.02-52.53,.11-1.46,.02-2.59-.27-3.36Z"/><path class="cls-1" d="M89.91,259.5c-7.88,.46-15.51-.36-22.83-2.47-14.38-4.16-26.64-12.34-36.45-24.32-7.16-8.54-12.94-18.68-17.18-30.15-.51-1.4-1.34-3.78-3.96-11.88-2.75-8.53-4.43-19.3-5.28-33.89-.8-13.74-.1-27.78,2.09-41.74,2.24-14.29,6.11-28.06,11.52-40.93,5.81-13.81,13.57-26.18,23.07-36.77,10.66-11.87,23.58-20.67,38.4-26.15,13.65-5.04,26.79-6.14,39.06-3.27,11.16,2.6,20.91,7.48,28.97,14.49,.05,.04,.1,.09,.15,.13,8.61,7.58,14.85,16.49,18.53,26.47,2.82,7.62,4.54,16.16,5.24,26.07,.42,5.94,.26,12.01-.46,18.15,7.64,3.85,13.81,10.5,16.96,18.97,.01,.03,.02,.05,.03,.08,1.95,5.3,2.68,10.92,2.21,17.19-1.79,24.06-6.74,45.36-14.71,63.33-13.35,30.74-33.7,51.35-60.5,61.26-8.52,3.15-16.83,4.96-24.87,5.44Zm95.3-127.62s0,.02,0,.02c0,0,0-.02,0-.02Z"/></g><path class="cls-2" d="M156.85,123.69c-.32-.87-.9-1.26-1.73-1.17-1.34,.49-2.19,2.12-2.57,4.9-1.58,9.47-4.31,19.24-8.21,29.3-3.9,10.06-8.94,19.14-15.13,27.24-6.19,8.11-13.37,13.67-21.54,16.69-6.37,2.35-11.81,1.76-16.31-1.79-4.5-3.55-8.09-8.95-10.76-16.19-3.04-8.21-4.93-18.15-5.68-29.84-.66-10.84-.24-22.41,1.27-34.71,2.28-16.32,6.56-30.69,12.83-43.11,1.81-3.58,3.59-6.72,5.35-9.52,3.34-4.44,11.26-9.66,16.39-7.09,6.13,3.08,5.83,13.82,4.33,19.4,0,.01,0,.03,0,.05-.25,1-.5,2.01-.79,3.04-2.67,9.72-6.04,18.67-10.08,26.86-4.05,8.19-7.71,13.12-10.99,14.76,3.75,1.69,7.78,2.28,12.09,1.79,4.3-.49,7.74-1.21,10.3-2.16,3.23-1.19,6.38-2.9,9.45-5.14,5.41-4.08,9.2-10.32,11.4-18.7,1.75-7.24,2.39-14.2,1.92-20.88-.47-6.68-1.57-12.35-3.28-16.98-1.78-4.83-4.92-9.21-9.4-13.16-3.98-3.47-8.94-5.89-14.85-7.27-5.91-1.38-12.63-.68-20.14,2.09-9.79,3.62-18.23,9.37-25.3,17.26-7.08,7.89-12.82,17.07-17.22,27.53-4.4,10.46-7.51,21.55-9.34,33.26-1.83,11.71-2.41,23.29-1.75,34.73,.67,11.44,1.91,20.01,3.75,25.7,1.83,5.69,3,9.21,3.5,10.56,2.96,8.01,6.85,14.87,11.65,20.55,5.55,6.84,12.29,11.4,20.21,13.69,7.92,2.28,16.97,1.55,27.14-2.21,18.16-6.71,32.07-21.25,41.75-43.59,6.49-14.59,10.5-32.09,12.02-52.53,.11-1.46,.02-2.59-.27-3.36Z"/></svg>