<?xml version="1.0" encoding="UTF-8"?><svg id="Layer_3" xmlns="http://www.w3.org/2000/svg" viewBox="0 0 297 343"><defs><style>.cls-1{fill:#fff;}.cls-2{fill:#ffddae;}.cls-3{fill:#ff1e7c;}.cls-4{fill:#f0bd8f;}</style></defs><path class="cls-1" d="M231.67,96.58c-.07-.14-.15-.28-.22-.43-.25,.32,.13,.29,.23,.41,2.18,5.1,3.88,10.32,4.62,15.86,.41,3.1-.39,5.96-1.02,8.92-1.12-2.92-1.26-6.06-2.64-8.87-3.15-6.4-7.82-11.16-14.49-13.87-1.16-.47-2.01-.52-3.03,.53-7.91,8.19-17.62,13.74-27.88,18.35-14.9,6.69-30.47,11.29-46.6,13.83-7.33,1.15-14.74,1.78-22.17,1.89-.4,0-.83,.14-1.32-.48,1.39-.26,2.66-.52,3.93-.74,12.24-2.05,24.27-5.02,36.03-8.91,13.87-4.59,27.39-10.09,39.51-18.47,4.41-3.05,8.44-6.56,11.91-10.71,4.96-5.93,5.06-12.48,2.68-19.35-2.42-7-6.6-11.39-14.21-14.99,4.04,3.45,6.79,7.72,7.92,12.87,1.11,5.04,.86,10.04-1.14,14.92-.73-4.17-1.56-8.27-3.56-12.01-4.62-8.65-11.83-13.1-21.63-13.83-3.78-.28-6.45,.91-9.18,3.39-5.81,5.28-12.89,8.54-20.14,11.32-14.58,5.59-29.85,8.94-44.71,13.64-9.75,3.09-19.38,6.61-27.51,13.12-6.72,5.38-10.63,12.3-10.78,21.05-.04,2.13-.56,3.1-2.95,3.36-15.11,1.68-25.08,15.33-26.18,27.86-.75,8.51,1.19,16.21,6.4,22.98,1.43,1.85,.39,2.73-.8,3.83-4.45,4.11-8.2,8.8-10.74,14.31-5.6,12.1-3.7,23.51,3.84,34.1,5.67,7.97,13.47,13.43,22.24,17.56,1.04,.49,2.09,.98,3.13,1.47,0,2.35,1.48,4.18,2.36,6.18,2.5,5.69,5.3,11.25,8.03,16.83,3.37,6.87,6.95,13.64,10.17,20.57,2.9,6.24,5.97,12.37,9.24,18.42,2.18,4.03,5.78,6.31,9.77,8.22,6.14,2.92,12.71,4.12,19.35,4.74,5.42,.5,10.87,.8,16.36,.71,7.06-.11,14-1.49,21.08-1.26,2.26,.08,4.56-.7,6.83-1.13,7.14-1.34,14.38-2.33,21.4-4.17,5.38-1.41,10.8-2.73,16.09-4.61,3.15-1.12,6.36-2.2,9.55-3.26,3.83-1.27,7.5-3.12,11.06-5.06,4.22-2.29,8.74-4.12,12.43-7.3,3.87-3.35,7.97-6.47,10.47-11.17,1.88-3.54,2-7.44,2.37-11.21,.94-9.63,1.54-19.3,2.3-28.95,.5-6.28,1.24-12.56,1.59-18.84,.29-5.22,1.03-10.38,1.32-15.58,.03-.47-.19-.96-.3-1.44,3.23-3.28,6.98-5.97,9.95-9.56,11.13-13.45,14.77-28.52,8.92-45.07-3.76-10.64-10.84-18.85-22.08-22.81,14.58,8.92,22.32,21.4,20.61,38.8-1.32-4.34-2.75-8.68-4.74-12.8-4.5-9.31-11.1-16.07-21.8-17.89-1.32-.22-2.13,.11-3.06,.97-7.76,7.15-16.79,12.36-26.18,17.04-11.41,5.69-23.36,10.07-35.56,13.54-13.65,3.88-27.47,7.16-41.71,8.39-7.82,.68-15.62,1.15-23.46,1.1-.71,0-1.47,.15-1.77-.12,5.09-.96,10.38-2.25,15.74-2.9,8.48-1.03,16.72-3.16,25.02-4.99,7.41-1.63,14.72-3.71,21.94-6.08,10.29-3.37,20.35-7.24,30.05-12.06,9.58-4.76,18.6-10.36,26.24-17.92,4.13-4.08,7.91-8.49,9.02-14.48,1.76-9.56,.33-18.39-6.13-26.02-.58-.69-1.13-1.42-2.01-1.78M137.02,17.19c-.61,.18-.93,.27-1.24,.38q-4.33,1.4-3.25,5.73c1.97,7.91-.72,14.16-8.12,19.28-5.94,4.12-12.63,6.72-19.1,9.76-6.85,3.22-13.87,6.19-19.34,11.72-5.91,5.97-6.78,13.01-4.12,20.59,2.37,6.76,2.54,6.71,9.1,3.91,5.25-2.24,10.74-3.79,16.22-5.28,12.58-3.41,25.24-6.57,37.39-11.32,7.37-2.88,14.5-6.32,20.13-12.19,5.52-5.75,6.96-12.62,4.56-19.94-4.14-12.59-13.09-20.06-26.1-22.51-2.07-.39-4.27-.11-6.13-.14"/><path class="cls-3" d="M252.66,211.21c-2.83,1.23-5.16,3.29-7.92,4.71-2.96,1.53-6.06,2.77-9.01,4.32-.93,.49-1.56,1.46-2.68,1.59-3.93,.61-7.36,2.95-11.37,3.25-7.66,1.36-15.33,2.73-22.99,4.09-.13-.09-.28-.26-.4-.26-4.22,.34-8.45,.28-12.67,.18-5,.03-9.99,.25-14.98-.31-2.09-.24-3.96,.68-5.49,2.17-3.02,1.63-5.19,4.45-8.36,5.96-.85,.4-2.09,.43-2.64,1.46-6.29,3.81-12.89,6.98-19.84,9.42-1.23,.43-2.39,1.06-3.58,1.6-1.59,.34-3.6,.18-4.67,1.11-1.8,1.55-3.98,.95-5.79,1.87-7.64,1.79-15.48,2.22-23.22,3.3-3.89-.22-7.77-.45-11.66-.67-3.61-.09-7.13-.82-10.64-1.55-4.61-.96-9.17-2.13-13.54-3.93-1.04-.49-2.09-.98-3.13-1.47-8.77-4.13-16.57-9.59-22.24-17.56-7.54-10.6-9.44-22-3.84-34.1,2.54-5.51,6.29-10.19,10.74-14.31,1.19-1.1,2.23-1.98,.8-3.83-5.21-6.77-7.16-14.47-6.4-22.98,1.11-12.53,11.07-26.19,26.18-27.86,2.39-.27,2.91-1.24,2.95-3.37,.16-8.75,4.06-15.67,10.79-21.04,8.14-6.51,17.76-10.03,27.51-13.12,14.85-4.71,30.13-8.05,44.71-13.64,7.25-2.78,14.33-6.04,20.14-11.32,2.74-2.49,5.4-3.67,9.18-3.39,9.8,.72,17.01,5.18,21.63,13.83,2,3.74,2.83,7.83,3.56,12.01,2-4.89,2.25-9.89,1.14-14.92-1.13-5.15-3.89-9.41-7.92-12.87,7.61,3.6,11.79,7.99,14.21,14.99,2.38,6.87,2.27,13.42-2.68,19.35-3.47,4.15-7.49,7.66-11.91,10.7-12.13,8.38-25.64,13.89-39.51,18.47-11.76,3.89-23.8,6.85-36.03,8.91-1.27,.21-2.53,.48-3.93,.74,.49,.62,.92,.49,1.32,.48,7.43-.11,14.84-.74,22.17-1.89,16.14-2.54,31.7-7.14,46.61-13.83,10.26-4.61,19.97-10.16,27.88-18.35,1.02-1.06,1.87-1.01,3.03-.53,6.66,2.71,11.33,7.47,14.48,13.87,1.38,2.81,1.52,5.95,2.64,8.87,.63-2.97,1.44-5.82,1.02-8.92-.74-5.54-2.44-10.76-4.62-15.86h-.01c.88,.37,1.43,1.1,2.01,1.79,6.46,7.63,7.89,16.46,6.13,26.02-1.11,6-4.9,10.4-9.02,14.48-7.64,7.56-16.66,13.16-26.24,17.92-9.7,4.82-19.76,8.69-30.05,12.06-7.23,2.37-14.53,4.45-21.94,6.08-8.3,1.83-16.54,3.96-25.02,4.99-5.36,.65-10.64,1.94-15.74,2.9,.3,.28,1.05,.12,1.77,.12,7.84,.05,15.64-.43,23.46-1.1,14.25-1.23,28.07-4.52,41.72-8.39,12.2-3.47,24.15-7.85,35.56-13.54,9.38-4.68,18.42-9.89,26.18-17.04,.93-.85,1.74-1.19,3.06-.97,10.69,1.82,17.29,8.57,21.8,17.89,1.99,4.12,3.42,8.45,4.74,12.8,1.71-17.4-6.03-29.88-20.61-38.8,11.24,3.96,18.31,12.16,22.08,22.81,5.85,16.55,2.21,31.62-8.92,45.07-2.97,3.59-6.73,6.28-9.96,9.56m-194.94,9.74c1.33,9.08,9.6,13.58,16.57,12.4,8.78-1.49,14.36-8.75,12.75-17.53-1.63-8.89-9.4-13.87-17.66-12.21-6.73,1.35-13.83,7.76-11.65,17.34m47.59,9.44c4.37,1.18,8.04,1.29,11.72,1.36,8.39,.16,16.43-1.81,24.15-4.72,13.47-5.08,25.61-12.28,34.48-24.04,2.29-3.04,4.09-6.34,4.76-10.39-19.87,22.35-46.62,31.04-75.11,37.79m91.33-97.41c-.98-6.22-6.5-9.79-12.34-8.83-6.97,1.15-9.95,6.79-9.01,12.65,1,6.19,6.42,9.47,12.49,8.91,5.42-.5,10.52-7.68,8.86-12.73m-74.41-34.3c-4.13,.72-7.52,5.61-6.98,9.72,.69,5.29,6.4,8.35,10.12,7.67,4.64-.84,7.95-5.43,7.31-10.2-.64-4.74-5.46-8.06-10.44-7.19m98.95,87.35c-4,.87-6.29,4.67-5.75,8.09,.63,3.97,4.98,6.78,8.88,5.95,2.97-.64,5.9-5.45,5.29-8.7-.64-3.43-4.79-6.06-8.42-5.34"/><path class="cls-2" d="M154.14,238.38c-6.29,3.81-12.89,6.98-19.84,9.42-1.23,.43-2.39,1.06-3.58,1.6,2.28,11.06,4.55,22.13,6.84,33.19,.57,2.73,1.24,5.45,1.91,8.16,2.26,9.2,3.14,18.71,5.88,27.82,.36,1.22-.05,1.89-1.35,2.03-.82,.09-1.62,.33-2.44,.43-1.8,.22-2.93-.32-3.31-2.36-.51-2.74-1.31-5.43-2.07-8.12-1.83-6.47-3.96-12.87-5.5-19.4-1.11-4.73-2.74-9.29-3.91-14-2.06-8.28-4.9-16.36-6.51-24.76-7.64,1.79-15.48,2.22-23.22,3.3,1.31,2.59,1.8,5.45,2.77,8.14,2.46,6.78,4.75,13.62,7.15,20.42,3.78,10.74,7.23,21.61,11.19,32.3,1.07,2.9,.65,3.49-2.44,3-1.69-.27-4.01,.2-4.74-1.9-1.32-3.81-3.14-7.4-4.69-11.1-4.9-11.73-9.79-23.47-14.53-35.27-2.17-5.4-4.93-10.57-6.37-16.26-3.61-.09-7.13-.82-10.64-1.55-4.61-.96-9.17-2.13-13.54-3.93,0,2.35,1.48,4.18,2.36,6.17,2.5,5.69,5.29,11.25,8.04,16.83,3.37,6.86,6.95,13.64,10.17,20.57,2.9,6.24,5.97,12.37,9.24,18.42,2.18,4.03,5.78,6.31,9.77,8.22,6.13,2.92,12.71,4.12,19.35,4.74,5.42,.5,10.87,.8,16.36,.71,7.05-.11,14-1.49,21.08-1.26,2.26,.07,4.56-.7,6.83-1.13,7.15-1.34,14.38-2.33,21.4-4.17,5.38-1.41,10.81-2.74,16.09-4.61,3.15-1.12,6.36-2.2,9.55-3.26,3.83-1.27,7.5-3.12,11.06-5.05,4.22-2.29,8.74-4.12,12.43-7.3,3.87-3.35,7.97-6.47,10.47-11.17,1.88-3.54,2-7.44,2.37-11.21,.94-9.63,1.54-19.3,2.3-28.95,.5-6.28,1.24-12.56,1.59-18.84,.29-5.22,1.03-10.38,1.32-15.58,.03-.47-.19-.96-.3-1.44-2.84,1.23-5.17,3.29-7.92,4.72-2.96,1.53-6.06,2.77-9.01,4.32-.93,.49-1.57,1.46-2.68,1.59,.46,5.73,.07,11.48-.06,17.19-.22,9.66-.45,19.33-.74,29-.26,8.6-.39,17.2-.58,25.81-.02,.81,.2,1.67-.71,2.2-1.49,.87-2.98,1.75-4.45,2.65-1.18,.72-1.67,.3-1.71-.96-.14-4.74-.26-9.49-.44-14.23-.27-7.2-.57-14.4-.88-21.6-.29-6.63-.54-13.26-.94-19.87-.33-5.64,.02-11.32-.87-16.93-7.66,1.36-15.33,2.73-22.99,4.09,.52,3.83,1.15,7.65,1.53,11.5,.62,6.2,.99,12.42,1.63,18.62,.57,5.56,1.62,11.07,2.01,16.64,.64,9.17,1.7,18.3,2.74,27.43,.5,4.39,.35,4.65-3.08,5.93-1.93,.72-2.86,.38-3.33-1.94-2.42-12.06-4.07-24.24-6.25-36.33-.56-3.07-.93-6.19-1.4-9.27-1.58-10.35-3.96-20.57-5.19-30.98-.14-1.17-.84-1.46-1.75-1.67-5,.03-9.99,.25-14.98-.31-2.1-.24-3.96,.68-5.49,2.17,.71,6.37,1.19,12.77,2.2,19.09,1.45,9.11,2.35,18.27,3.6,27.4,.53,3.83,.98,7.68,1.52,11.51,1.19,8.45,1.88,16.98,2.98,25.45,.25,1.97-.38,2.42-2.07,2.7-1.58,.27-2.58,.37-2.95-1.69-.79-4.37-1.78-8.71-2.77-13.05-2.25-9.81-3.98-19.73-6.13-29.57-2.46-11.26-4.41-22.63-6.61-33.95-.04-.2-.51-.31-.78-.46"/><path class="cls-3" d="M137.02,17.19c1.85,.03,4.05-.25,6.13,.14,13.01,2.45,21.96,9.92,26.1,22.51,2.4,7.32,.96,14.18-4.56,19.94-5.63,5.87-12.77,9.3-20.13,12.19-12.15,4.75-24.81,7.91-37.39,11.32-5.48,1.49-10.97,3.04-16.22,5.28-6.56,2.79-6.73,2.85-9.1-3.91-2.66-7.58-1.79-14.62,4.12-20.59,5.47-5.52,12.48-8.49,19.34-11.72,6.48-3.04,13.16-5.65,19.1-9.77,7.39-5.12,10.09-11.37,8.12-19.28q-1.08-4.33,3.25-5.73c.31-.1,.63-.19,1.24-.37m-50.27,65.79c1.59-5.94,5.69-8.65,10.15-10.98,8.72-4.55,18.29-7.07,27.19-11.19,5.25-2.43,10.33-5.13,14.11-9.7,2.87-3.48,4.07-7.44,3.48-11.95-.66-5.07-2.51-9.64-5.72-14.37,.64,4,1.58,7.33,.99,10.81-1.18,6.93-5.63,11.36-11.28,14.87-6.61,4.11-13.92,6.76-20.94,10.01-5.08,2.35-10.1,4.82-14.05,8.98-3.48,3.67-4.8,7.95-3.92,13.51m72.1-43.11c-.44-2.51-2.77-4.13-5.36-3.74-1.53,.23-4.33,3.28-4.12,4.49,.59,3.42,2.75,5.19,5.82,4.76,2.2-.31,4.08-3.14,3.66-5.51"/><path class="cls-3" d="M231.67,96.58c-.07-.14-.15-.28-.22-.43-.25,.32,.13,.29,.23,.41h-.01Z"/><path class="cls-4" d="M185.61,229.1c.91,.21,1.61,.5,1.75,1.67,1.23,10.41,3.61,20.63,5.19,30.98,.47,3.08,.84,6.19,1.4,9.27,2.18,12.09,3.82,24.28,6.25,36.33,.46,2.32,1.4,2.65,3.32,1.94,3.43-1.27,3.58-1.54,3.08-5.93-1.04-9.13-2.1-18.25-2.74-27.43-.39-5.57-1.44-11.08-2.01-16.64-.64-6.2-1.01-12.42-1.63-18.62-.38-3.84-1.01-7.66-1.53-11.5-.14-.09-.28-.27-.4-.26-4.22,.34-8.45,.28-12.68,.18"/><path class="cls-4" d="M154.14,238.38c.27,.15,.74,.27,.78,.46,2.2,11.32,4.15,22.69,6.61,33.95,2.14,9.84,3.88,19.76,6.13,29.57,1,4.33,1.98,8.67,2.77,13.05,.37,2.06,1.37,1.96,2.95,1.69,1.68-.28,2.32-.73,2.07-2.7-1.09-8.47-1.78-17-2.98-25.45-.54-3.83-.99-7.68-1.52-11.51-1.25-9.13-2.15-18.29-3.6-27.4-1.01-6.32-1.49-12.72-2.2-19.09-3.02,1.63-5.19,4.45-8.36,5.96-.85,.4-2.09,.43-2.64,1.46"/><path class="cls-4" d="M221.67,225.09c.89,5.61,.54,11.29,.87,16.93,.39,6.62,.65,13.25,.94,19.87,.31,7.2,.61,14.4,.88,21.6,.18,4.74,.29,9.48,.44,14.23,.04,1.25,.53,1.68,1.71,.96,1.47-.9,2.96-1.78,4.45-2.65,.91-.53,.7-1.39,.71-2.2,.18-8.6,.32-17.2,.58-25.81,.29-9.66,.52-19.33,.74-28.99,.13-5.71,.52-11.46,.06-17.19-3.93,.61-7.36,2.94-11.37,3.25"/><path class="cls-4" d="M120.26,252.39c1.61,8.4,4.45,16.49,6.51,24.76,1.18,4.71,2.8,9.27,3.92,14,1.54,6.54,3.66,12.93,5.5,19.4,.76,2.69,1.55,5.38,2.07,8.12,.38,2.04,1.51,2.58,3.31,2.36,.82-.1,1.62-.34,2.44-.43,1.3-.14,1.72-.81,1.35-2.03-2.73-9.12-3.62-18.62-5.87-27.82-.67-2.71-1.34-5.43-1.91-8.16-2.3-11.06-4.57-22.13-6.84-33.19-1.59,.34-3.6,.18-4.67,1.11-1.8,1.55-3.98,.95-5.79,1.87"/><path class="cls-3" d="M57.72,220.95c-2.18-9.58,4.92-16,11.65-17.34,8.27-1.65,16.04,3.33,17.67,12.21,1.6,8.78-3.97,16.04-12.75,17.53-6.96,1.18-15.23-3.32-16.57-12.4m14.21-4.89c3.31-.63,5.34-2.73,5.14-5.28-.25-3.12-2.72-5.02-6.05-4.64-4.13,.46-6.75,3.04-6.24,6.12,.47,2.88,3.52,4.5,7.16,3.8"/><path class="cls-4" d="M85.39,255.02c1.44,5.69,4.2,10.86,6.37,16.26,4.74,11.8,9.63,23.54,14.53,35.27,1.55,3.7,3.36,7.29,4.69,11.1,.73,2.1,3.04,1.63,4.74,1.9,3.09,.49,3.51-.1,2.44-3-3.95-10.69-7.4-21.55-11.19-32.3-2.4-6.8-4.69-13.64-7.15-20.42-.98-2.69-1.47-5.55-2.77-8.14-3.88-.22-7.77-.45-11.65-.67"/><path class="cls-1" d="M105.31,230.39c4.37,1.18,8.04,1.29,11.72,1.36,8.39,.16,16.43-1.81,24.15-4.72,13.47-5.08,25.61-12.28,34.48-24.04,2.29-3.04,4.09-6.34,4.76-10.39-19.87,22.36-46.62,31.04-75.11,37.8"/><path class="cls-3" d="M196.64,132.98c1.66,5.05-3.44,12.23-8.86,12.73-6.07,.57-11.49-2.72-12.48-8.91-.95-5.87,2.04-11.51,9-12.66,5.84-.96,11.36,2.61,12.34,8.83m-12.27-6.8c-2.57,.51-4.1,2.27-3.76,4.34,.3,1.82,2.92,3.29,5.09,2.85,2.45-.5,3.98-2.39,3.63-4.5-.36-2.15-2.31-3.21-4.96-2.69"/><path class="cls-3" d="M122.24,98.68c4.98-.87,9.8,2.45,10.44,7.19,.65,4.78-2.67,9.37-7.31,10.2-3.72,.67-9.43-2.38-10.12-7.67-.53-4.11,2.85-9.01,6.98-9.72m.75,1.72c-2.56,.47-3.8,1.92-3.42,3.55,.34,1.45,2.48,2.58,4.19,2.22,1.82-.39,3.32-2.19,2.92-3.68-.59-2.18-2.35-2.17-3.69-2.09"/><path class="cls-3" d="M221.19,186.04c3.63-.72,7.78,1.91,8.42,5.34,.61,3.25-2.32,8.07-5.28,8.7-3.9,.84-8.25-1.98-8.88-5.95-.54-3.42,1.74-7.23,5.75-8.09m-2.08,4.28c.63,1.61,1.94,2.04,3.39,1.75,1.52-.31,2.58-1.47,2.2-3.02-.4-1.64-2-1.81-3.43-1.54-1.46,.28-2.18,1.3-2.16,2.81"/><path class="cls-1" d="M86.76,82.98c1.59-5.94,5.69-8.65,10.14-10.98,8.72-4.55,18.29-7.07,27.19-11.19,5.25-2.43,10.33-5.13,14.11-9.7,2.87-3.48,4.07-7.44,3.48-11.95-.66-5.07-2.51-9.64-5.72-14.37,.64,4,1.58,7.33,.99,10.81-1.18,6.93-5.63,11.36-11.28,14.87-6.61,4.11-13.92,6.76-20.94,10.01-5.08,2.35-10.1,4.82-14.05,8.98-3.48,3.67-4.8,7.95-3.92,13.51"/><path class="cls-3" d="M158.85,39.87c.42,2.38-1.46,5.21-3.66,5.51-3.07,.43-5.23-1.34-5.82-4.76-.21-1.21,2.59-4.26,4.12-4.49,2.59-.39,4.92,1.23,5.36,3.74m-5.41-2.74c-.93,.2-1.66,.86-1.46,1.84,.21,1,1.19,1.24,2.18,1.06,.93-.16,1.53-.65,1.37-1.67-.18-1.13-.99-1.39-2.09-1.23"/><path class="cls-1" d="M71.93,216.07c3.31-.63,5.34-2.73,5.14-5.28-.25-3.12-2.72-5.02-6.05-4.64-4.13,.46-6.75,3.04-6.24,6.12,.47,2.88,3.52,4.5,7.16,3.8"/><path class="cls-1" d="M184.37,126.18c-2.57,.51-4.1,2.27-3.76,4.34,.3,1.82,2.92,3.29,5.09,2.85,2.45-.5,3.98-2.39,3.63-4.5-.36-2.15-2.31-3.21-4.96-2.69"/><path class="cls-1" d="M122.99,100.41c-2.56,.47-3.8,1.92-3.42,3.55,.34,1.45,2.48,2.58,4.19,2.22,1.82-.39,3.32-2.19,2.92-3.68-.59-2.18-2.35-2.17-3.69-2.09"/><path class="cls-3" d="M219.11,190.31c.63,1.61,1.94,2.04,3.39,1.75,1.52-.31,2.58-1.47,2.2-3.02-.4-1.64-2-1.81-3.43-1.54-1.46,.28-2.18,1.3-2.16,2.81"/><path class="cls-3" d="M153.45,37.12c-.93,.2-1.66,.86-1.46,1.84,.21,1,1.19,1.24,2.18,1.06,.93-.16,1.53-.65,1.37-1.67-.18-1.13-.99-1.39-2.09-1.23"/></svg>