<?xml version="1.0" encoding="UTF-8"?><svg id="Layer_3" xmlns="http://www.w3.org/2000/svg" viewBox="0 0 297 343"><defs><style>.cls-1{fill:#fff;}.cls-2{fill:#ffddae;}.cls-3{fill:#ff1e7c;}.cls-4{fill:#f0bd8f;}</style></defs><path class="cls-1" d="M73.86,91.02c-.89,.31-1.49,1-2.11,1.65-6.9,7.23-8.86,15.96-7.66,25.61,.75,6.05,4.27,10.67,8.15,14.99,7.18,8,15.85,14.12,25.13,19.45,9.4,5.39,19.21,9.85,29.28,13.82,7.08,2.79,14.24,5.3,21.54,7.37,8.18,2.32,16.27,4.93,24.68,6.47,5.31,.97,10.51,2.57,15.54,3.83-.31,.26-1.06,.06-1.77,.02-7.83-.42-15.59-1.36-23.36-2.5-14.15-2.08-27.75-6.18-41.14-10.86-11.97-4.18-23.65-9.26-34.69-15.62-9.09-5.23-17.8-10.96-25.12-18.57-.87-.91-1.67-1.3-3-1.15-10.78,1.18-17.77,7.53-22.82,16.56-2.23,3.99-3.91,8.24-5.49,12.5-.67-17.48,7.8-29.47,22.88-37.51-11.45,3.29-19,11.06-23.39,21.46-6.83,16.17-4.09,31.43,6.23,45.52,2.75,3.76,6.34,6.67,9.37,10.13-.13,.47-.38,.95-.38,1.42-.02,5.21,.41,10.4,.39,15.63-.02,6.28,.34,12.6,.47,18.9,.19,9.68,.21,19.36,.58,29.04,.15,3.79,.03,7.69,1.7,11.34,2.21,4.83,6.12,8.2,9.78,11.77,3.49,3.4,7.9,5.49,11.97,8.03,3.44,2.14,6.99,4.21,10.74,5.7,3.11,1.25,6.26,2.52,9.34,3.82,5.16,2.19,10.5,3.84,15.78,5.56,6.89,2.25,14.06,3.67,21.11,5.44,2.24,.56,4.49,1.47,6.75,1.53,7.07,.19,13.93,1.98,20.96,2.51,5.48,.41,10.93,.44,16.37,.26,6.67-.22,13.3-1.03,19.6-3.58,4.1-1.66,7.83-3.72,10.24-7.62,3.62-5.84,7.06-11.78,10.32-17.83,3.63-6.73,7.6-13.27,11.37-19.93,3.07-5.41,6.18-10.79,9.02-16.32,.99-1.94,2.59-3.67,2.72-6.02,1.07-.43,2.14-.85,3.21-1.28,9-3.6,17.11-8.58,23.24-16.21,8.15-10.13,10.73-21.4,5.86-33.82-2.21-5.65-5.67-10.55-9.87-14.92-1.12-1.17-2.11-2.11-.57-3.88,5.61-6.44,8-14.02,7.76-22.56-.36-12.58-9.5-26.8-24.48-29.37-2.37-.4-2.83-1.4-2.75-3.53,.36-8.74-3.13-15.88-9.52-21.65-7.73-6.98-17.13-11.06-26.68-14.73-14.55-5.58-29.6-9.83-43.82-16.28-7.07-3.21-13.95-6.88-19.43-12.49-2.59-2.65-5.17-3.99-8.97-3.93-9.83,.14-17.29,4.16-22.41,12.52-2.22,3.61-3.29,7.65-4.27,11.77-1.7-5-1.66-10-.25-14.97,1.44-5.07,4.44-9.17,8.68-12.37-7.81,3.15-12.24,7.28-15.07,14.12-2.78,6.72-3.07,13.26,1.53,19.47,3.22,4.34,7.02,8.09,11.25,11.39,11.61,9.08,24.77,15.39,38.35,20.79,11.51,4.58,23.35,8.25,35.44,11.03,1.26,.29,2.5,.62,3.88,.97-.52,.59-.95,.43-1.34,.4-7.41-.55-14.77-1.62-22.02-3.21-15.96-3.49-31.22-9.01-45.7-16.57-9.97-5.21-19.33-11.33-26.74-19.97-.96-1.11-1.81-1.12-2.99-.71-6.81,2.31-11.76,6.78-15.29,12.98-1.55,2.72-1.87,5.85-3.16,8.69-.46-3-1.09-5.9-.49-8.97,1.06-5.49,3.08-10.6,5.55-15.56,.11-.12,.49-.06,.25-.4-.08,.14-.16,.27-.24,.41M173.06,17.39c-1.85-.08-4.03-.49-6.12-.22-13.13,1.68-22.51,8.6-27.39,20.92-2.84,7.16-1.81,14.1,3.36,20.17,5.27,6.19,12.19,10.05,19.37,13.36,11.85,5.47,24.3,9.37,36.65,13.52,5.39,1.81,10.77,3.69,15.88,6.23,6.38,3.18,6.55,3.24,9.32-3.37,3.11-7.41,2.66-14.49-2.89-20.8-5.13-5.84-11.96-9.22-18.61-12.85-6.28-3.42-12.8-6.42-18.49-10.88-7.07-5.55-9.39-11.95-6.96-19.73q1.33-4.25-2.91-5.91c-.31-.12-.62-.23-1.22-.45"/><path class="cls-3" d="M46.09,204.2c-3.03-3.47-6.62-6.38-9.37-10.14-10.31-14.09-13.05-29.35-6.23-45.52,4.39-10.4,11.94-18.17,23.39-21.46-15.08,8.04-23.55,20.03-22.88,37.51,1.58-4.26,3.26-8.5,5.49-12.49,5.05-9.03,12.04-15.38,22.82-16.56,1.33-.14,2.12,.24,3,1.15,7.32,7.6,16.03,13.34,25.12,18.57,11.05,6.36,22.72,11.44,34.69,15.63,13.39,4.68,27,8.78,41.14,10.86,7.77,1.14,15.52,2.08,23.35,2.5,.71,.04,1.46,.24,1.77-.02-5.03-1.26-10.23-2.86-15.54-3.83-8.4-1.54-16.5-4.15-24.68-6.47-7.3-2.07-14.47-4.58-21.54-7.37-10.07-3.97-19.88-8.43-29.28-13.82-9.28-5.32-17.95-11.45-25.13-19.45-3.88-4.32-7.4-8.94-8.15-14.99-1.19-9.65,.76-18.37,7.66-25.61,.62-.65,1.21-1.35,2.11-1.65v-.02c-2.49,4.96-4.5,10.08-5.56,15.56-.6,3.07,.04,5.97,.49,8.97,1.29-2.85,1.62-5.97,3.17-8.69,3.53-6.2,8.47-10.67,15.28-12.98,1.18-.4,2.04-.4,2.99,.71,7.41,8.65,16.77,14.76,26.74,19.97,14.48,7.57,29.75,13.08,45.7,16.57,7.25,1.59,14.61,2.66,22.02,3.21,.39,.03,.82,.19,1.34-.4-1.38-.35-2.62-.68-3.88-.97-12.09-2.78-23.93-6.45-35.44-11.03-13.58-5.4-26.74-11.71-38.35-20.79-4.23-3.31-8.03-7.05-11.25-11.39-4.6-6.21-4.31-12.76-1.53-19.47,2.83-6.84,7.26-10.98,15.07-14.12-4.23,3.21-7.24,7.3-8.68,12.37-1.41,4.96-1.45,9.97,.25,14.97,.98-4.12,2.05-8.16,4.27-11.78,5.13-8.36,12.59-12.38,22.41-12.52,3.79-.05,6.38,1.29,8.97,3.93,5.48,5.62,12.36,9.29,19.43,12.49,14.22,6.45,29.27,10.69,43.82,16.28,9.55,3.67,18.95,7.75,26.68,14.73,6.39,5.77,9.88,12.91,9.52,21.65-.09,2.13,.38,3.13,2.75,3.53,14.98,2.57,24.12,16.79,24.48,29.37,.25,8.54-2.15,16.11-7.76,22.56-1.54,1.76-.55,2.71,.57,3.87,4.2,4.37,7.66,9.28,9.87,14.92,4.87,12.42,2.29,23.69-5.86,33.82-6.14,7.63-14.24,12.6-23.24,16.21-1.07,.43-2.14,.85-3.21,1.28-4.47,1.54-9.09,2.44-13.75,3.12-3.55,.52-7.11,1.04-10.72,.91-3.89,0-7.78-.02-11.68-.02-7.66-1.54-15.46-2.43-22.98-4.68-1.75-1.03-3.97-.56-5.67-2.22-1.02-.99-3.03-.96-4.6-1.39-1.16-.61-2.28-1.31-3.48-1.81-6.79-2.85-13.19-6.4-19.24-10.58-.49-1.07-1.73-1.16-2.55-1.62-3.08-1.69-5.07-4.63-7.99-6.44-1.43-1.58-3.24-2.6-5.35-2.49-5.02,.26-9.99-.26-14.97-.58-4.23-.15-8.45-.34-12.64-.93-.13-.02-.28,.15-.42,.23-7.57-1.82-15.14-3.63-22.7-5.45-3.99-.54-7.28-3.08-11.16-3.92-1.11-.19-1.68-1.2-2.58-1.74-2.86-1.72-5.87-3.15-8.74-4.85-2.66-1.58-4.87-3.78-7.62-5.18m194.02,21.31c2.74-9.44-3.96-16.26-10.6-18-8.15-2.14-16.21,2.37-18.36,11.14-2.13,8.67,3.01,16.24,11.69,18.25,6.88,1.59,15.4-2.41,17.27-11.39m-48.07,6.59c-28.04-8.43-54.22-18.69-72.73-42.19,.43,4.08,2.03,7.48,4.14,10.65,8.15,12.27,19.84,20.18,32.99,26.05,7.53,3.36,15.44,5.81,23.82,6.15,3.68,.15,7.35,.25,11.78-.66m-85.38-102.66c-1.96,4.94,2.71,12.41,8.09,13.23,6.02,.93,11.63-2.03,12.99-8.15,1.29-5.8-1.35-11.61-8.24-13.17-5.77-1.31-11.5,1.93-12.84,8.08m76.31-29.82c-4.92-1.16-9.93,1.87-10.85,6.56-.93,4.73,2.11,9.51,6.69,10.62,3.67,.89,9.56-1.82,10.56-7.06,.78-4.08-2.31-9.16-6.39-10.12m-103.97,81.32c-3.58-.94-7.88,1.44-8.73,4.83-.8,3.21,1.84,8.19,4.76,9,3.85,1.07,8.35-1.48,9.22-5.41,.74-3.38-1.31-7.32-5.25-8.42"/><path class="cls-2" d="M142.83,237.18c6.06,4.18,12.45,7.73,19.24,10.58,1.2,.5,2.32,1.2,3.48,1.81-2.93,10.91-5.86,21.82-8.81,32.72-.73,2.7-1.56,5.36-2.39,8.03-2.8,9.05-4.25,18.49-7.52,27.42-.44,1.2-.06,1.89,1.23,2.11,.81,.14,1.6,.42,2.41,.57,1.79,.33,2.94-.15,3.44-2.16,.68-2.7,1.63-5.34,2.55-7.98,2.21-6.35,4.72-12.61,6.64-19.04,1.39-4.65,3.29-9.11,4.74-13.74,2.55-8.14,5.86-16.04,7.97-24.33,7.52,2.25,15.32,3.13,22.98,4.68-1.46,2.5-2.12,5.33-3.25,7.96-2.86,6.62-5.55,13.31-8.35,19.96-4.42,10.5-8.5,21.14-13.09,31.58-1.24,2.83-.85,3.44,2.26,3.14,1.71-.17,3.99,.44,4.84-1.61,1.55-3.73,3.57-7.2,5.34-10.8,5.59-11.42,11.17-22.85,16.6-34.34,2.49-5.26,5.55-10.26,7.33-15.85,3.61,.12,7.17-.39,10.72-.91,4.66-.68,9.28-1.58,13.75-3.12-.13,2.35-1.73,4.08-2.72,6.02-2.84,5.53-5.95,10.91-9.02,16.32-3.77,6.65-7.74,13.2-11.37,19.93-3.26,6.05-6.7,11.99-10.32,17.83-2.41,3.89-6.14,5.96-10.24,7.62-6.3,2.55-12.93,3.36-19.6,3.58-5.44,.18-10.9,.15-16.37-.26-7.03-.53-13.89-2.32-20.96-2.51-2.26-.06-4.51-.97-6.75-1.53-7.05-1.76-14.22-3.18-21.11-5.43-5.28-1.73-10.62-3.37-15.78-5.56-3.07-1.3-6.22-2.58-9.34-3.82-3.74-1.5-7.3-3.56-10.74-5.7-4.07-2.54-8.48-4.63-11.97-8.03-3.67-3.58-7.57-6.94-9.79-11.77-1.67-3.65-1.55-7.54-1.7-11.34-.37-9.67-.39-19.36-.58-29.04-.12-6.3-.49-12.62-.46-18.9,.02-5.23-.41-10.42-.4-15.63,0-.47,.25-.95,.38-1.42,2.76,1.4,4.96,3.59,7.63,5.18,2.87,1.7,5.88,3.13,8.74,4.85,.9,.54,1.48,1.55,2.58,1.74-.8,5.69-.75,11.45-.96,17.16-.35,9.66-.7,19.33-.98,28.99-.25,8.6-.63,17.2-.96,25.79-.03,.81-.3,1.66,.58,2.24,1.44,.96,2.87,1.92,4.29,2.91,1.13,.79,1.65,.39,1.76-.85,.43-4.73,.83-9.46,1.28-14.18,.7-7.17,1.42-14.34,2.16-21.51,.68-6.6,1.33-13.2,2.12-19.78,.67-5.61,.66-11.3,1.87-16.85,7.57,1.82,15.14,3.63,22.7,5.45-.74,3.8-1.6,7.57-2.21,11.39-.98,6.15-1.73,12.34-2.73,18.49-.9,5.51-2.28,10.96-3,16.49-1.19,9.12-2.79,18.16-4.37,27.22-.76,4.35-.62,4.62,2.72,6.1,1.88,.83,2.83,.55,3.43-1.74,3.13-11.89,5.5-23.96,8.4-35.9,.74-3.04,1.29-6.12,1.95-9.17,2.19-10.24,5.17-20.3,7.02-30.62,.21-1.16,.92-1.41,1.85-1.57,4.99,.32,9.95,.84,14.97,.58,2.11-.11,3.91,.91,5.35,2.49-1.09,6.31-1.95,12.67-3.33,18.92-1.99,9-3.44,18.1-5.22,27.14-.75,3.79-1.43,7.61-2.2,11.4-1.7,8.37-2.89,16.84-4.48,25.23-.37,1.95,.24,2.43,1.9,2.82,1.56,.36,2.55,.52,3.04-1.51,1.04-4.32,2.29-8.59,3.54-12.86,2.83-9.66,5.15-19.46,7.87-29.15,3.12-11.1,5.74-22.33,8.62-33.5,.05-.19,.53-.28,.81-.42"/><path class="cls-3" d="M173.06,17.39c.6,.22,.91,.33,1.22,.45q4.24,1.66,2.91,5.91c-2.44,7.78-.12,14.18,6.96,19.73,5.68,4.46,12.2,7.46,18.49,10.88,6.65,3.62,13.48,7,18.61,12.84,5.54,6.31,5.99,13.39,2.89,20.8-2.77,6.61-2.93,6.54-9.32,3.37-5.11-2.54-10.49-4.42-15.88-6.23-12.35-4.15-24.8-8.05-36.65-13.52-7.18-3.32-14.1-7.17-19.37-13.36-5.17-6.07-6.2-13.01-3.36-20.17,4.88-12.32,14.26-19.24,27.39-20.92,2.09-.27,4.27,.14,6.12,.22m46.27,68.67c1.21-5.5,.15-9.85-3.11-13.72-3.69-4.38-8.56-7.15-13.49-9.8-6.81-3.66-13.95-6.75-20.31-11.24-5.43-3.84-9.61-8.52-10.37-15.51-.38-3.51,.75-6.78,1.63-10.73-3.49,4.53-5.61,8.98-6.57,14-.86,4.47,.1,8.49,2.76,12.14,3.5,4.79,8.41,7.79,13.5,10.52,8.64,4.64,18.04,7.72,26.48,12.78,4.31,2.58,8.24,5.54,9.48,11.56m-69.41-47.32c-.56,2.35,1.15,5.28,3.33,5.72,3.04,.61,5.3-1.03,6.09-4.41,.28-1.2-2.33-4.41-3.85-4.73-2.56-.55-4.98,.94-5.57,3.41"/><path class="cls-3" d="M73.86,91.02c.08-.14,.16-.27,.24-.41,.23,.34-.14,.28-.25,.4h0Z"/><path class="cls-4" d="M111.96,226.04c-.92,.16-1.64,.41-1.85,1.57-1.85,10.32-4.83,20.38-7.02,30.62-.65,3.05-1.21,6.13-1.95,9.17-2.89,11.94-5.26,24.01-8.4,35.9-.6,2.29-1.55,2.56-3.43,1.74-3.34-1.48-3.48-1.75-2.72-6.1,1.58-9.05,3.18-18.1,4.37-27.22,.72-5.53,2.09-10.98,3-16.49,1.01-6.15,1.75-12.34,2.73-18.49,.61-3.82,1.46-7.59,2.21-11.39,.14-.08,.29-.25,.42-.23,4.19,.59,8.42,.78,12.64,.93"/><path class="cls-4" d="M142.83,237.18c-.28,.14-.76,.22-.81,.42-2.87,11.17-5.5,22.4-8.62,33.5-2.72,9.69-5.04,19.49-7.87,29.15-1.25,4.27-2.5,8.54-3.54,12.86-.49,2.04-1.48,1.87-3.04,1.51-1.66-.38-2.27-.87-1.9-2.82,1.6-8.39,2.79-16.86,4.48-25.23,.77-3.79,1.45-7.6,2.2-11.4,1.79-9.04,3.23-18.13,5.22-27.14,1.38-6.25,2.24-12.61,3.33-18.92,2.92,1.81,4.92,4.75,7.99,6.44,.83,.45,2.06,.55,2.55,1.62"/><path class="cls-4" d="M76.2,219.89c-1.22,5.55-1.21,11.24-1.88,16.85-.78,6.58-1.44,13.18-2.12,19.78-.74,7.17-1.46,14.34-2.16,21.51-.46,4.72-.86,9.45-1.28,14.18-.11,1.25-.63,1.64-1.76,.85-1.42-.99-2.85-1.95-4.29-2.91-.88-.58-.61-1.43-.58-2.24,.33-8.6,.71-17.19,.96-25.79,.28-9.66,.63-19.33,.98-28.99,.21-5.71,.16-11.47,.96-17.16,3.88,.85,7.17,3.38,11.16,3.92"/><path class="cls-4" d="M175.81,253.17c-2.11,8.29-5.42,16.19-7.97,24.33-1.45,4.63-3.35,9.09-4.74,13.74-1.92,6.43-4.43,12.69-6.64,19.04-.92,2.64-1.87,5.28-2.55,7.98-.51,2.01-1.66,2.49-3.44,2.16-.81-.15-1.6-.43-2.41-.57-1.29-.22-1.67-.91-1.23-2.11,3.27-8.94,4.72-18.37,7.52-27.42,.83-2.67,1.66-5.34,2.39-8.03,2.95-10.9,5.87-21.81,8.81-32.72,1.57,.43,3.58,.4,4.6,1.39,1.7,1.66,3.92,1.19,5.67,2.22"/><path class="cls-3" d="M240.11,225.51c-1.87,8.98-10.39,12.99-17.27,11.39-8.68-2.01-13.81-9.59-11.69-18.26,2.15-8.77,10.2-13.28,18.36-11.14,6.64,1.75,13.34,8.57,10.6,18.01m-13.9-5.72c3.59,.91,6.72-.53,7.37-3.37,.69-3.05-1.77-5.77-5.86-6.48-3.3-.57-5.88,1.17-6.32,4.27-.36,2.54,1.55,4.76,4.81,5.58"/><path class="cls-4" d="M210.47,257.87c-1.78,5.59-4.84,10.59-7.33,15.85-5.43,11.5-11.01,22.92-16.6,34.35-1.76,3.61-3.79,7.07-5.34,10.8-.85,2.05-3.13,1.45-4.84,1.61-3.11,.3-3.5-.31-2.26-3.14,4.58-10.43,8.67-21.08,13.08-31.58,2.8-6.65,5.49-13.34,8.35-19.96,1.13-2.63,1.79-5.46,3.25-7.96,3.89,0,7.78,.01,11.67,.02"/><path class="cls-1" d="M192.04,232.1c-4.43,.91-8.1,.81-11.78,.66-8.39-.34-16.29-2.79-23.82-6.15-13.15-5.87-24.83-13.78-32.99-26.05-2.11-3.17-3.71-6.57-4.14-10.65,18.5,23.5,44.69,33.76,72.73,42.19"/><path class="cls-3" d="M106.66,129.44c1.35-6.15,7.07-9.39,12.84-8.08,6.89,1.56,9.53,7.37,8.24,13.17-1.36,6.12-6.97,9.08-12.99,8.15-5.38-.83-10.05-8.29-8.09-13.24m12.65-6.06c-2.61-.68-4.62,.26-5.11,2.39-.48,2.08,.94,4.06,3.36,4.71,2.14,.57,4.85-.74,5.25-2.54,.46-2.05-.96-3.89-3.5-4.55"/><path class="cls-3" d="M182.97,99.62c4.08,.96,7.17,6.05,6.39,10.12-1,5.24-6.89,7.95-10.56,7.06-4.58-1.11-7.62-5.89-6.69-10.62,.92-4.69,5.93-7.72,10.85-6.56m-.85,1.68c-1.33-.17-3.09-.28-3.81,1.86-.49,1.47,.91,3.35,2.7,3.85,1.69,.47,3.89-.53,4.31-1.96,.48-1.61-.67-3.12-3.2-3.75"/><path class="cls-3" d="M79.01,180.94c3.94,1.1,6,5.04,5.25,8.42-.87,3.93-5.37,6.48-9.22,5.41-2.92-.81-5.56-5.79-4.76-9,.84-3.39,5.15-5.77,8.72-4.83m1.82,4.39c.12-1.5-.55-2.57-1.99-2.94-1.41-.36-3.01-.29-3.51,1.33-.47,1.52,.52,2.75,2.01,3.15,1.42,.38,2.76,.02,3.48-1.54"/><path class="cls-1" d="M219.32,86.05c-1.24-6.03-5.17-8.98-9.47-11.56-8.44-5.06-17.84-8.14-26.48-12.79-5.1-2.74-10.01-5.73-13.5-10.52-2.66-3.65-3.62-7.66-2.76-12.14,.96-5.02,3.08-9.47,6.57-14-.88,3.95-2.01,7.23-1.63,10.73,.77,6.99,4.94,11.67,10.38,15.51,6.35,4.49,13.49,7.58,20.31,11.24,4.93,2.65,9.8,5.41,13.49,9.8,3.26,3.87,4.32,8.22,3.11,13.72"/><path class="cls-3" d="M149.92,38.73c.59-2.48,3.01-3.96,5.57-3.41,1.51,.32,4.13,3.53,3.85,4.73-.79,3.38-3.06,5.02-6.09,4.41-2.18-.44-3.89-3.37-3.33-5.72m5.56-2.42c-1.09-.23-1.91-.02-2.16,1.1-.22,1.01,.35,1.53,1.27,1.75,.97,.23,1.97,.06,2.24-.93,.26-.96-.43-1.67-1.35-1.92"/><path class="cls-1" d="M226.21,219.79c-3.26-.82-5.17-3.04-4.81-5.58,.44-3.1,3.01-4.85,6.32-4.27,4.09,.71,6.56,3.44,5.86,6.48-.65,2.85-3.78,4.28-7.37,3.37"/><path class="cls-1" d="M119.32,123.38c2.54,.66,3.96,2.51,3.5,4.55-.4,1.8-3.11,3.11-5.25,2.54-2.42-.64-3.83-2.63-3.36-4.71,.49-2.12,2.5-3.06,5.11-2.39"/><path class="cls-1" d="M182.12,101.3c2.53,.62,3.68,2.14,3.2,3.75-.42,1.43-2.63,2.43-4.31,1.96-1.79-.5-3.19-2.38-2.7-3.85,.72-2.14,2.47-2.03,3.81-1.86"/><path class="cls-3" d="M80.83,185.33c-.72,1.57-2.06,1.92-3.48,1.54-1.5-.4-2.49-1.63-2.01-3.15,.5-1.62,2.1-1.69,3.51-1.33,1.44,.36,2.1,1.43,1.99,2.94"/><path class="cls-3" d="M155.48,36.31c.91,.25,1.61,.96,1.35,1.92-.27,.99-1.27,1.16-2.24,.93-.92-.22-1.49-.74-1.27-1.75,.25-1.12,1.07-1.33,2.16-1.1"/></svg>